<svg width="394" height="263" viewBox="0 0 394 263" fill="none" xmlns="http://www.w3.org/2000/svg">
<g clip-path="url(#clip0_94_152)">
<path d="M0 0V263H394V0H0ZM171.39 233.6H20.36V133H171.39V233.6ZM171.39 126.6H20.36V26H171.39V126.6ZM329.03 233.6H178V133H329.03V233.6ZM329.03 126.6H178V26H329.03V126.6Z" fill="#C2DFFF"/>
<path d="M280.47 215.64C279.54 216.37 278.75 217.26 278.15 218.27C277.06 217.83 275.89 217.58 274.71 217.57C273.05 220.36 272.88 223.94 274.58 226.98C276.28 230.02 279.42 231.74 282.66 231.79C285.23 229.8 286.69 226.53 286.22 223.08C285.75 219.63 283.48 216.88 280.47 215.64Z" fill="#FFA9C4" stroke="#7DA5FF" stroke-width="0.75" stroke-miterlimit="10" stroke-linecap="round" stroke-linejoin="round"/>
<path d="M276.94 254.07C278.1 253.84 279.2 253.39 280.19 252.76C280.97 253.64 281.9 254.38 282.95 254.93C285.68 253.17 287.43 250.05 287.27 246.57C287.11 243.09 285.07 240.15 282.19 238.65C279 239.28 276.23 241.55 275.11 244.84C273.99 248.14 274.8 251.63 276.94 254.07Z" fill="#FFA9C4" stroke="#7DA5FF" stroke-width="0.75" stroke-miterlimit="10" stroke-linecap="round" stroke-linejoin="round"/>
<path d="M297.55 249.64C297.97 248.53 298.17 247.36 298.15 246.18C299.31 245.99 300.43 245.59 301.45 244.98C301.4 241.73 299.68 238.6 296.64 236.9C293.6 235.2 290.03 235.37 287.23 237.03C286.08 240.07 286.54 243.62 288.75 246.31C290.96 249.01 294.34 250.16 297.55 249.64Z" fill="#FFA9C4" stroke="#7DA5FF" stroke-width="0.75" stroke-miterlimit="10" stroke-linecap="round" stroke-linejoin="round"/>
<path d="M301.91 227.91C301.07 227.08 300.08 226.41 299 225.94C299.3 224.8 299.39 223.62 299.26 222.44C296.28 221.15 292.71 221.44 289.92 223.51C287.12 225.58 285.81 228.91 286.18 232.14C288.48 234.43 291.91 235.47 295.27 234.56C298.63 233.67 301.08 231.05 301.91 227.91Z" fill="#FFA9C4" stroke="#7DA5FF" stroke-width="0.75" stroke-miterlimit="10" stroke-linecap="round" stroke-linejoin="round"/>
<path d="M264.35 234.71C264.98 235.71 265.79 236.59 266.73 237.29C266.18 238.33 265.82 239.46 265.68 240.64C268.29 242.58 271.83 243.11 275.02 241.73C278.22 240.35 280.25 237.41 280.63 234.18C278.91 231.42 275.82 229.63 272.34 229.74C268.86 229.86 265.89 231.85 264.35 234.71Z" fill="#FFA9C4" stroke="#7DA5FF" stroke-width="0.75" stroke-miterlimit="10" stroke-linecap="round" stroke-linejoin="round"/>
<path d="M35.39 14.65C34.48 14.46 33.55 14.45 32.64 14.61C32.35 13.73 31.9 12.92 31.3 12.2C28.79 12.64 26.58 14.36 25.64 16.92C24.7 19.48 25.27 22.23 26.9 24.19C29.39 24.7 32.09 23.91 33.9 21.87C35.71 19.83 36.18 17.07 35.39 14.65Z" fill="#FFC0D1" stroke="#7DA5FF" stroke-width="0.7" stroke-miterlimit="10" stroke-linecap="round" stroke-linejoin="round"/>
<path d="M10.71 32.1499C11.44 32.7199 12.27 33.1499 13.15 33.4199C13.02 34.3299 13.06 35.2699 13.27 36.1699C15.71 36.8999 18.46 36.3499 20.45 34.4799C22.44 32.6099 23.15 29.8999 22.57 27.4199C20.57 25.8499 17.81 25.3499 15.27 26.3699C12.73 27.3699 11.07 29.6299 10.71 32.1499Z" fill="#FFC0D1" stroke="#7DA5FF" stroke-width="0.7" stroke-miterlimit="10" stroke-linecap="round" stroke-linejoin="round"/>
<path d="M23.86 42.16C24.73 41.84 25.53 41.36 26.23 40.76C26.94 41.35 27.75 41.81 28.63 42.11C30.54 40.42 31.52 37.8 30.99 35.12C30.45 32.44 28.53 30.4 26.11 29.59C23.72 30.46 21.84 32.54 21.36 35.23C20.87 37.92 21.91 40.52 23.86 42.16Z" fill="#FFC0D1" stroke="#7DA5FF" stroke-width="0.7" stroke-miterlimit="10" stroke-linecap="round" stroke-linejoin="round"/>
<path d="M39.0201 33.6699C39.0901 32.7499 38.9801 31.82 38.71 30.94C39.54 30.54 40.2901 29.9899 40.9301 29.3099C40.1801 26.8799 38.1801 24.8999 35.5201 24.2999C32.8601 23.6899 30.21 24.6099 28.47 26.4799C28.28 29.0199 29.41 31.59 31.66 33.13C33.91 34.67 36.7301 34.7799 39.0201 33.6699Z" fill="#FFC0D1" stroke="#7DA5FF" stroke-width="0.7" stroke-miterlimit="10" stroke-linecap="round" stroke-linejoin="round"/>
<path d="M15.81 14.7799C15.53 15.6599 15.42 16.5899 15.49 17.5099C14.59 17.7099 13.73 18.0699 12.96 18.5899C13.14 21.1299 14.63 23.5099 17.08 24.7099C19.53 25.9099 22.32 25.6199 24.44 24.1999C25.21 21.7699 24.69 19.0099 22.85 16.9999C21 14.9899 18.3 14.2399 15.81 14.7799Z" fill="#FFC0D1" stroke="#7DA5FF" stroke-width="0.7" stroke-miterlimit="10" stroke-linecap="round" stroke-linejoin="round"/>
<path d="M308.38 20.82C315.11 28.35 322.08 35.65 329.32 42.7C331.66 44.98 337.31 43.42 334.03 40.22C327.17 33.54 320.54 26.65 314.16 19.52C313.1 18.33 311.21 17.22 309.54 17.77C308.24 18.2 307.24 19.55 308.38 20.82Z" fill="#FFC0D1"/>
<path d="M12.56 215.66C19.72 223.68 27.53 231.03 35.98 237.68C37.31 238.73 43.85 238.28 42.08 236.88C33.87 230.41 26.29 223.28 19.33 215.48C17.99 213.99 11.76 214.77 12.56 215.66Z" fill="#FFC0D1"/>
<path d="M47.44 251.84C48.44 252.22 49.5 252.41 50.56 252.41C50.73 253.46 51.08 254.48 51.62 255.4C54.55 255.38 57.4 253.84 58.95 251.1C60.5 248.37 60.37 245.13 58.89 242.6C56.15 241.55 52.94 241.94 50.49 243.91C48.05 245.89 46.99 248.94 47.44 251.84Z" fill="#FFC0D1" stroke="#7DA5FF" stroke-width="0.5" stroke-miterlimit="10" stroke-linecap="round" stroke-linejoin="round"/>
<path d="M73.25 252.87C73.81 252.33 74.25 251.7 74.57 251C75.31 251.21 76.08 251.29 76.85 251.22C77.73 249.29 77.59 246.96 76.27 245.11C74.95 243.26 72.8 242.36 70.69 242.55C69.16 244.02 68.44 246.24 68.99 248.45C69.54 250.65 71.21 252.28 73.25 252.87Z" fill="#FFD4E4" stroke="#7DA5FF" stroke-width="0.5" stroke-miterlimit="10" stroke-linecap="round" stroke-linejoin="round"/>
<path d="M116.74 251.7C117.23 251.83 117.74 251.86 118.24 251.8C118.37 252.28 118.59 252.74 118.9 253.15C120.28 252.99 121.53 252.11 122.12 250.75C122.71 249.38 122.48 247.87 121.65 246.76C120.31 246.41 118.82 246.76 117.78 247.82C116.71 248.87 116.37 250.36 116.74 251.7Z" fill="#FFA6BF" stroke="#7DA5FF" stroke-width="0.5" stroke-miterlimit="10" stroke-linecap="round" stroke-linejoin="round"/>
<path d="M142.33 246.28C141.83 245.88 141.25 245.59 140.64 245.4C140.73 244.77 140.71 244.12 140.56 243.5C138.87 242.99 136.97 243.37 135.59 244.66C134.21 245.95 133.71 247.83 134.11 249.54C135.49 250.63 137.4 250.98 139.16 250.28C140.92 249.58 142.07 248.02 142.33 246.28Z" fill="#FFC2D5" stroke="#7DA5FF" stroke-width="0.5" stroke-miterlimit="10" stroke-linecap="round" stroke-linejoin="round"/>
<path d="M375.73 151.85C374.53 151.08 373.2 150.54 371.81 150.26C371.88 148.84 371.69 147.42 371.24 146.06C367.4 145.29 363.26 146.53 360.48 149.68C357.7 152.83 356.99 157.09 358.23 160.81C361.52 162.94 365.83 163.3 369.57 161.39C373.31 159.47 375.53 155.77 375.73 151.85Z" fill="#FFC0D1" stroke="#7DA5FF" stroke-width="0.5" stroke-miterlimit="10" stroke-linecap="round" stroke-linejoin="round"/>
<path d="M349.62 129.11C348.88 129.76 348.26 130.54 347.81 131.42C346.88 131.1 345.89 130.96 344.91 131C343.66 133.41 343.69 136.4 345.26 138.85C346.82 141.3 349.52 142.59 352.24 142.48C354.29 140.7 355.35 137.9 354.79 135.04C354.23 132.18 352.18 130 349.62 129.11Z" fill="#FFCAE0" stroke="#7DA5FF" stroke-width="0.5" stroke-miterlimit="10" stroke-linecap="round" stroke-linejoin="round"/>
<path d="M359.82 102.03C358.76 102.5 357.8 103.16 356.98 103.98C356.05 103.3 355 102.79 353.88 102.49C351.63 104.75 350.62 108.11 351.51 111.41C352.4 114.71 354.97 117.1 358.05 117.92C360.97 116.64 363.14 113.89 363.52 110.49C363.9 107.09 362.39 103.93 359.82 102.03Z" fill="#FFA6BF" stroke="#7DA5FF" stroke-width="0.5" stroke-miterlimit="10" stroke-linecap="round" stroke-linejoin="round"/>
<path d="M380.78 122.26C379.87 122.06 378.92 122.03 378 122.17C377.72 121.28 377.28 120.45 376.69 119.72C374.15 120.12 371.89 121.82 370.9 124.39C369.91 126.96 370.44 129.74 372.05 131.74C374.56 132.3 377.29 131.55 379.15 129.52C381.02 127.49 381.54 124.71 380.78 122.26Z" fill="#FFB8D5" stroke="#7DA5FF" stroke-width="0.5" stroke-miterlimit="10" stroke-linecap="round" stroke-linejoin="round"/>
<path d="M375.73 110.72C377 110.72 378.03 109.444 378.03 107.87C378.03 106.296 377 105.02 375.73 105.02C374.46 105.02 373.43 106.296 373.43 107.87C373.43 109.444 374.46 110.72 375.73 110.72Z" fill="white"/>
<path d="M345.46 171.26C347.675 171.26 349.47 169.035 349.47 166.29C349.47 163.545 347.675 161.32 345.46 161.32C343.245 161.32 341.45 163.545 341.45 166.29C341.45 169.035 343.245 171.26 345.46 171.26Z" fill="white"/>
<path d="M371.47 111.49C371.735 111.49 371.95 111.275 371.95 111.01C371.95 110.745 371.735 110.53 371.47 110.53C371.205 110.53 370.99 110.745 370.99 111.01C370.99 111.275 371.205 111.49 371.47 111.49Z" fill="white"/>
<path d="M351.19 172.04C351.621 172.04 351.97 171.691 351.97 171.26C351.97 170.829 351.621 170.48 351.19 170.48C350.759 170.48 350.41 170.829 350.41 171.26C350.41 171.691 350.759 172.04 351.19 172.04Z" fill="white"/>
<path d="M96.48 253.3C98.6946 253.3 100.49 251.075 100.49 248.33C100.49 245.585 98.6946 243.36 96.48 243.36C94.2653 243.36 92.47 245.585 92.47 248.33C92.47 251.075 94.2653 253.3 96.48 253.3Z" fill="white"/>
<path d="M128.21 244.78C129.221 244.78 130.04 243.768 130.04 242.52C130.04 241.272 129.221 240.26 128.21 240.26C127.199 240.26 126.38 241.272 126.38 242.52C126.38 243.768 127.199 244.78 128.21 244.78Z" fill="white"/>
<path d="M102.21 254.07C102.641 254.07 102.99 253.721 102.99 253.29C102.99 252.859 102.641 252.51 102.21 252.51C101.779 252.51 101.43 252.859 101.43 253.29C101.43 253.721 101.779 254.07 102.21 254.07Z" fill="white"/>
<path d="M380.34 207.14C385.55 201.28 387.3 193.03 384.93 185.55C382.28 185.04 379.57 185.02 376.88 185.49C376.64 185.53 376.4 185.39 376.32 185.16C375.46 182.57 374.16 180.2 372.46 178.1C364.75 179.55 358.31 184.99 355.61 192.35C352.9 199.75 354.32 208.11 359.32 214.21C367.06 215.74 375.1 213.03 380.34 207.14Z" fill="#FFC0D1"/>
<path d="M358.82 215.11C358.86 215.13 358.9 215.14 358.94 215.15C360.49 215.47 362.05 215.62 363.61 215.62C370.21 215.62 376.62 212.82 381.08 207.8C386.59 201.6 388.39 192.84 385.78 184.95C385.72 184.78 385.58 184.65 385.41 184.62C382.69 184.06 379.9 184 377.13 184.43C376.2 181.79 374.82 179.37 373.04 177.23C372.93 177.09 372.75 177.02 372.57 177.06C364.38 178.49 357.52 184.22 354.66 192.01C351.8 199.8 353.33 208.6 358.66 214.99C358.71 215.04 358.76 215.08 358.82 215.11ZM355.14 192.18C358.05 184.25 364.9 178.91 372.66 177.55C374.5 179.76 375.89 182.29 376.8 185C379.61 184.51 382.5 184.55 385.32 185.12C387.8 192.6 386.33 201.16 380.72 207.48C375.11 213.79 366.78 216.25 359.06 214.67C354 208.61 352.23 200.11 355.14 192.18Z" fill="#7DA5FF"/>
<path d="M359.05 214.66C366.77 216.24 375.1 213.78 380.71 207.47C386.32 201.16 387.79 192.6 385.31 185.11C382.5 184.53 379.61 184.5 376.79 184.99C375.89 182.28 374.49 179.75 372.65 177.54C364.89 178.9 358.04 184.24 355.13 192.17C352.23 200.11 354 208.61 359.05 214.66ZM355.61 192.35C358.31 184.99 364.75 179.55 372.46 178.1C374.16 180.2 375.46 182.57 376.32 185.16C376.4 185.39 376.64 185.54 376.88 185.49C379.57 185.02 382.27 185.05 384.93 185.55C387.3 193.03 385.55 201.28 380.34 207.14C375.1 213.03 367.06 215.73 359.32 214.21C354.32 208.11 352.89 199.75 355.61 192.35Z" fill="#7DA5FF"/>
<path d="M345.2 224.92C338.96 220.1 330.56 218.92 323.24 221.85C315.96 224.77 310.71 231.36 309.48 239.11C311.62 240.75 314.03 241.98 316.65 242.76C316.89 242.83 317.04 243.06 317 243.31C316.61 246.01 316.71 248.72 317.3 251.35C324.85 253.5 333.04 251.51 338.75 246.13C344.48 240.73 346.95 232.62 345.2 224.92Z" fill="#FFC0D1"/>
<path d="M346.13 224.52C346.12 224.48 346.11 224.44 346.09 224.41C346.06 224.34 346.01 224.29 345.95 224.24C339.41 219.11 330.57 217.83 322.86 220.92C315.16 224 309.63 231.03 308.44 239.25C308.41 239.43 308.48 239.6 308.63 239.71C310.82 241.43 313.28 242.73 315.95 243.59C315.6 246.37 315.75 249.15 316.39 251.86C316.43 252.03 316.56 252.17 316.73 252.23C318.92 252.88 321.17 253.2 323.4 253.2C329.28 253.2 335.05 250.98 339.43 246.86C345.47 241.18 348.04 232.61 346.13 224.52ZM316.88 251.75C316.22 248.96 316.1 246.07 316.51 243.24C313.78 242.42 311.2 241.1 308.95 239.32C310.08 231.52 315.22 224.52 323.06 221.38C330.9 218.24 339.45 219.77 345.65 224.63C347.46 232.3 345.24 240.7 339.09 246.49C332.94 252.28 324.43 254.01 316.88 251.75Z" fill="#7DA5FF"/>
<path d="M345.65 224.64C339.45 219.77 330.9 218.25 323.06 221.39C315.22 224.53 310.08 231.53 308.95 239.33C311.21 241.1 313.78 242.42 316.51 243.25C316.11 246.08 316.22 248.96 316.88 251.76C324.43 254.02 332.95 252.3 339.09 246.51C345.23 240.72 347.45 232.31 345.65 224.64ZM338.75 246.14C333.04 251.52 324.85 253.51 317.3 251.36C316.72 248.73 316.62 246.02 317 243.32C317.03 243.07 316.89 242.84 316.65 242.77C314.04 241.98 311.63 240.75 309.48 239.12C310.71 231.37 315.96 224.77 323.24 221.86C330.56 218.93 338.96 220.11 345.2 224.93C346.95 232.62 344.48 240.73 338.75 246.14Z" fill="#7DA5FF"/>
<path d="M371.2 248.59C369.64 240.86 364.05 234.49 356.6 231.9C349.2 234.65 343.77 241.16 342.38 248.92C341.52 253.78 342.32 258.72 344.51 263H369.25C371.46 258.6 372.2 253.53 371.2 248.59Z" fill="#FFC0D1"/>
<path d="M341.9 248.83C343.38 240.51 349.19 234.06 356.6 231.37C364.07 233.89 370.03 240.21 371.7 248.49C372.73 253.6 371.96 258.65 369.84 263H370.38C372.51 258.51 373.2 253.39 372.19 248.39C370.55 240.26 364.64 233.55 356.76 230.89C356.64 230.85 356.52 230.85 356.41 230.9C348.6 233.74 342.85 240.58 341.4 248.74C340.53 253.65 341.29 258.63 343.4 263H343.94C341.83 258.77 341 253.85 341.9 248.83Z" fill="#7DA5FF"/>
<path d="M371.69 248.49C370.02 240.21 364.06 233.89 356.59 231.37C349.18 234.06 343.37 240.52 341.89 248.83C341 253.85 341.83 258.77 343.94 263H344.5C342.31 258.72 341.51 253.78 342.37 248.92C343.75 241.16 349.19 234.65 356.59 231.9C364.05 234.48 369.63 240.86 371.19 248.59C372.19 253.54 371.44 258.61 369.24 263H369.81C371.95 258.65 372.72 253.6 371.69 248.49Z" fill="#7DA5FF"/>
<path d="M364.43 221.93C363.91 229.8 367.61 237.43 374.12 241.88C379.97 245.87 387.38 246.8 394 244.52V219.34C391.54 217.51 388.71 216.16 385.64 215.46C377.95 213.71 369.84 216.19 364.43 221.93Z" fill="#FFC0D1"/>
<path d="M363.57 221.38C363.49 221.46 363.45 221.57 363.44 221.68C362.82 229.97 366.7 238.02 373.55 242.7C377.48 245.38 382.08 246.74 386.7 246.74C389.16 246.74 391.62 246.35 393.99 245.57V245.05C387.44 247.26 379.97 246.48 373.82 242.29C366.84 237.53 363.34 229.58 363.92 221.72C369.28 215.94 377.49 213.1 385.73 214.98C388.8 215.68 391.58 216.97 393.98 218.7V218.11C391.55 216.42 388.8 215.17 385.84 214.5C377.77 212.64 369.23 215.28 363.57 221.38Z" fill="#7DA5FF"/>
<path d="M363.94 221.71C363.94 221.72 363.94 221.72 363.94 221.71C363.36 229.57 366.86 237.52 373.83 242.28C379.98 246.48 387.45 247.25 394 245.04V244.5C387.38 246.78 379.96 245.85 374.12 241.86C367.61 237.42 363.91 229.79 364.43 221.91C369.84 216.17 377.96 213.69 385.64 215.44C388.71 216.14 391.55 217.49 394 219.32V218.67C391.6 216.94 388.82 215.65 385.75 214.95C377.51 213.09 369.3 215.94 363.94 221.71Z" fill="#7DA5FF"/>
<path d="M328.87 215.84C335.95 219.3 344.41 218.74 351 214.39C353.31 206.84 351.45 198.57 346.12 192.76C340.82 186.97 332.8 184.39 325.11 185.98C324.33 188.56 324.03 191.25 324.22 193.98C324.24 194.23 324.07 194.45 323.83 194.5C321.17 195.09 318.67 196.14 316.41 197.62C317.07 205.43 321.82 212.4 328.87 215.84Z" fill="#FFC0D1"/>
<path d="M328.43 216.74C331.66 218.32 335.15 219.09 338.64 219.09C343.22 219.09 347.78 217.75 351.7 215.12C351.79 215.06 351.86 214.96 351.9 214.85C354.4 206.92 352.46 198.19 346.86 192.08C341.26 185.96 332.73 183.27 324.62 185.06C324.45 185.1 324.3 185.23 324.25 185.4C323.41 188.05 323.06 190.82 323.21 193.62C320.49 194.27 317.94 195.39 315.63 196.95C315.48 197.05 315.4 197.22 315.41 197.4C315.98 205.69 320.98 213.1 328.43 216.74ZM323.73 194.01C323.53 191.16 323.86 188.29 324.73 185.55C332.43 183.85 340.79 186.19 346.5 192.42C352.21 198.65 353.8 207.19 351.43 214.71C344.89 219.11 336.25 220 328.66 216.29C321.07 212.58 316.46 205.22 315.91 197.36C318.28 195.76 320.94 194.63 323.73 194.01Z" fill="#7DA5FF"/>
<path d="M328.65 216.29C336.24 220 344.88 219.11 351.42 214.71C353.78 207.19 352.19 198.65 346.49 192.42C340.78 186.19 332.42 183.86 324.72 185.55C323.86 188.29 323.53 191.16 323.72 194.01C320.93 194.63 318.27 195.76 315.89 197.36C316.45 205.22 321.06 212.58 328.65 216.29ZM323.83 194.5C324.07 194.45 324.24 194.22 324.22 193.98C324.03 191.26 324.33 188.57 325.11 185.98C332.8 184.39 340.82 186.97 346.12 192.76C351.44 198.57 353.3 206.85 351 214.39C344.42 218.74 335.96 219.3 328.87 215.84C321.82 212.4 317.07 205.43 316.42 197.61C318.68 196.14 321.17 195.09 323.83 194.5Z" fill="#7DA5FF"/>
</g>
<defs>
<clipPath id="clip0_94_152">
<rect width="394" height="263" fill="white"/>
</clipPath>
</defs>
</svg>
