<svg width="160" height="480" viewBox="0 0 160 480" fill="none" xmlns="http://www.w3.org/2000/svg">
<g clip-path="url(#clip0_94_323)">
<path d="M0 0V479.96H159.99V0H0ZM147.99 388.77H12V298.38H147.99V388.77ZM147.99 293.58H12V203.19H147.99V293.58ZM147.99 198.39H12V108H147.99V198.39ZM147.99 103.19H12V12.8H147.99V103.19Z" fill="#FFC2DE"/>
<path d="M66.6 372.76C35.55 372.76 10.38 381.49 10.38 392.27C10.38 400.52 25.15 407.57 46 410.42L42.45 423.42L58.56 411.58C61.19 411.71 63.87 411.78 66.6 411.78C97.65 411.78 122.82 403.05 122.82 392.27C122.82 381.49 97.65 372.76 66.6 372.76Z" fill="white"/>
<path d="M66.6 372.76C35.55 372.76 10.38 381.49 10.38 392.27C10.38 400.52 25.15 407.57 46 410.42L42.45 423.42L58.56 411.58C61.19 411.71 63.87 411.78 66.6 411.78C97.65 411.78 122.82 403.05 122.82 392.27C122.82 381.49 97.65 372.76 66.6 372.76Z" stroke="black" stroke-width="0.5113" stroke-miterlimit="10" stroke-linecap="round" stroke-linejoin="round"/>
<path d="M21.26 389.48C21.57 389.48 21.85 389.57 22.09 389.75C22.33 389.93 22.52 390.19 22.66 390.52C22.8 390.85 22.86 391.24 22.87 391.69C22.87 392.13 22.8 392.52 22.66 392.86C22.53 393.19 22.34 393.45 22.09 393.63C21.84 393.81 21.57 393.9 21.26 393.9C20.95 393.9 20.67 393.81 20.43 393.63C20.19 393.45 20 393.19 19.86 392.86C19.73 392.53 19.66 392.14 19.66 391.69C19.66 391.25 19.73 390.86 19.86 390.52C20 390.19 20.18 389.93 20.43 389.75C20.68 389.57 20.95 389.48 21.26 389.48ZM21.26 389.98C21.05 389.98 20.87 390.05 20.71 390.2C20.55 390.34 20.42 390.54 20.33 390.8C20.24 391.06 20.19 391.36 20.19 391.69C20.19 392.03 20.23 392.33 20.33 392.59C20.42 392.85 20.55 393.05 20.71 393.19C20.87 393.33 21.05 393.4 21.26 393.4C21.47 393.4 21.66 393.33 21.82 393.19C21.98 393.05 22.11 392.85 22.2 392.59C22.29 392.33 22.33 392.03 22.33 391.69C22.33 391.35 22.29 391.05 22.2 390.79C22.11 390.53 21.99 390.33 21.82 390.19C21.66 390.06 21.47 389.98 21.26 389.98ZM24.48 388.99V395.33H23.92V388.99H24.48ZM25.54 391.53V392.01H24.35V391.53H25.54Z" fill="black"/>
<path d="M33.5201 394.05V394.52H27.7101V394.05H33.5201ZM30.6001 389.39C31.0501 389.39 31.4501 389.46 31.8001 389.6C32.1501 389.74 32.4301 389.93 32.6201 390.17C32.8201 390.42 32.9101 390.7 32.9101 391.03C32.9101 391.35 32.8101 391.64 32.6201 391.88C32.4201 392.13 32.1501 392.32 31.8001 392.45C31.4501 392.58 31.0501 392.65 30.6001 392.65C30.1501 392.65 29.7501 392.58 29.4001 392.45C29.0501 392.32 28.7801 392.12 28.5801 391.88C28.3801 391.63 28.2901 391.35 28.2901 391.03C28.2901 390.71 28.3901 390.42 28.5801 390.17C28.7801 389.92 29.0501 389.73 29.4001 389.6C29.7501 389.46 30.1501 389.39 30.6001 389.39ZM30.6001 389.85C30.2601 389.85 29.9501 389.9 29.6801 389.99C29.4101 390.09 29.2001 390.22 29.0501 390.4C28.9001 390.58 28.8201 390.79 28.8201 391.02C28.8201 391.25 28.9001 391.46 29.0501 391.64C29.2001 391.82 29.4101 391.96 29.6801 392.06C29.9501 392.16 30.2601 392.21 30.6001 392.21C30.9401 392.21 31.2501 392.16 31.5201 392.06C31.7901 391.96 32.0001 391.82 32.1501 391.64C32.3001 391.46 32.3801 391.26 32.3801 391.02C32.3801 390.79 32.3001 390.58 32.1501 390.4C32.0001 390.22 31.7901 390.08 31.5201 389.99C31.2501 389.9 30.9401 389.85 30.6001 389.85ZM29.7001 392.26V394.16H29.1501V392.26H29.7001ZM32.0801 392.26V394.16H31.5101V392.26H32.0801Z" fill="black"/>
<path d="M39.81 391.97V392.42H34.03V391.97H39.81ZM37.06 389.71C37.06 390.04 36.94 390.34 36.71 390.6C36.48 390.86 36.18 391.08 35.8 391.25C35.42 391.42 35.01 391.53 34.56 391.58L34.36 391.14C34.74 391.1 35.1 391.01 35.44 390.88C35.78 390.75 36.05 390.58 36.25 390.37C36.46 390.17 36.56 389.95 36.56 389.71V389.52H37.06V389.71ZM39.29 389.28V389.73H34.56V389.28H39.29ZM39.1 393.11V395.25H34.74V393.11H39.1ZM35.29 393.56V394.79H38.55V393.56H35.29ZM37.29 389.71C37.29 389.95 37.39 390.17 37.59 390.37C37.79 390.57 38.07 390.74 38.41 390.88C38.75 391.01 39.11 391.1 39.5 391.14L39.29 391.58C38.85 391.53 38.43 391.41 38.05 391.25C37.67 391.09 37.36 390.87 37.13 390.6C36.9 390.33 36.78 390.04 36.78 389.71V389.52H37.28V389.71H37.29Z" fill="black"/>
<path d="M47.9901 392.55V393.02H42.1801V392.55H47.9901ZM43.4901 389.32V391.37H42.9301V389.32H43.4901ZM47.3001 391.13V391.59H42.9201V391.13H47.3001ZM45.3301 392.8V395.34H44.7701V392.8H45.3301Z" fill="black"/>
<path d="M51.77 389.67C51.77 390.29 51.67 390.87 51.46 391.42C51.26 391.97 50.94 392.47 50.51 392.93C50.08 393.39 49.52 393.79 48.85 394.12L48.54 393.68C49.13 393.39 49.62 393.04 50.02 392.65C50.42 392.25 50.72 391.82 50.92 391.33C51.12 390.84 51.22 390.32 51.22 389.76V389.67H51.77ZM51.5 389.67V390.14H48.84V389.67H51.5ZM53.41 388.99V395.33H52.85V388.99H53.41ZM54.44 391.57V392.04H53.26V391.57H54.44Z" fill="black"/>
<path d="M57.5301 389.37V390.37H59.3001V389.37H59.8501V392.31H56.9701V389.37H57.5301ZM57.5301 391.85H59.3001V390.82H57.5301V391.85ZM60.0701 393.39C60.0701 393.71 59.9601 394.01 59.7501 394.27C59.5401 394.53 59.2601 394.76 58.9101 394.94C58.5601 395.12 58.1701 395.25 57.7501 395.32L57.5401 394.88C57.9001 394.83 58.2401 394.73 58.5501 394.59C58.8601 394.45 59.1101 394.27 59.3001 394.06C59.4901 393.85 59.5801 393.63 59.5901 393.39V393.19H60.0601V393.39H60.0701ZM61.9901 393.02V393.48H57.8001V393.02H61.9901ZM61.5101 390.62V391.09H59.6901V390.62H61.5101ZM60.1901 393.39C60.1901 393.62 60.2801 393.84 60.4701 394.05C60.6601 394.26 60.9101 394.44 61.2201 394.58C61.5301 394.72 61.8701 394.83 62.2301 394.88L62.0201 395.32C61.6001 395.25 61.2101 395.13 60.8601 394.94C60.5101 394.75 60.2301 394.53 60.0201 394.27C59.8101 394 59.7001 393.71 59.7001 393.39V393.19H60.1801V393.39H60.1901ZM61.9101 388.99V392.69H61.3501V388.99H61.9101Z" fill="black"/>
<path d="M68.7401 391.72V392.18H62.9701V391.72H68.7401ZM66.0401 393.42C66.0401 393.73 65.9301 394.02 65.7101 394.29C65.4901 394.55 65.2001 394.77 64.8401 394.95C64.4801 395.13 64.0901 395.24 63.6601 395.31L63.4601 394.88C63.8201 394.83 64.1601 394.74 64.4801 394.6C64.8001 394.46 65.0601 394.29 65.2601 394.08C65.4601 393.87 65.5601 393.66 65.5601 393.43V393.35H66.0301V393.42H66.0401ZM65.1601 389.24V389.7H63.4701V389.24H65.1601ZM67.9801 393.06V393.5H63.7201V393.06H67.9801ZM65.4101 389.48V389.51C65.4101 389.69 65.4001 389.86 65.3901 390.03C65.3801 390.2 65.3501 390.39 65.3101 390.61C65.2701 390.84 65.2001 391.08 65.1201 391.33L64.5801 391.24C64.6701 390.98 64.7401 390.73 64.7801 390.51C64.8201 390.29 64.8501 390.11 64.8601 389.96C64.8701 389.81 64.8701 389.65 64.8701 389.48V389.24H65.4201V389.48H65.4101ZM66.1301 392.4V393.21H65.5701V392.4H66.1301ZM66.1301 393.42C66.1301 393.65 66.2301 393.86 66.4201 394.07C66.6201 394.28 66.8801 394.45 67.2001 394.59C67.5301 394.73 67.8701 394.83 68.2401 394.87L68.0301 395.3C67.6001 395.24 67.2101 395.12 66.8501 394.94C66.4901 394.77 66.2001 394.55 65.9801 394.28C65.7601 394.02 65.6501 393.73 65.6501 393.41V393.33H66.1201V393.42H66.1301ZM66.2601 390.62V392.01H65.7001V390.62H66.2601ZM67.7701 389.24V389.7H65.9301V389.24H67.7701ZM68.0901 389.49C68.0901 389.67 68.0901 389.84 68.0801 390.01C68.0701 390.18 68.0601 390.37 68.0301 390.6C68.0001 390.83 67.9601 391.07 67.9101 391.33L67.3701 391.26C67.4201 391.01 67.4601 390.78 67.4901 390.57C67.5201 390.36 67.5301 390.17 67.5401 390.02C67.5501 389.87 67.5501 389.71 67.5501 389.54V389.5V389.25H68.0901V389.49Z" fill="black"/>
<path d="M76.9 392.74V393.19H71.12V392.74H76.9ZM76.56 389.58V390.02H71.42V389.58H76.56ZM72.43 393.6V394.98H71.86V393.6H72.43ZM76.25 394.73V395.19H71.86V394.73H76.25ZM74 390.31C74.43 390.31 74.8 390.35 75.11 390.42C75.42 390.49 75.65 390.6 75.81 390.75C75.97 390.89 76.05 391.07 76.05 391.28C76.05 391.49 75.97 391.66 75.81 391.81C75.65 391.96 75.41 392.06 75.11 392.14C74.81 392.22 74.43 392.25 74 392.25C73.57 392.25 73.2 392.22 72.89 392.14C72.58 392.07 72.35 391.96 72.19 391.81C72.03 391.66 71.95 391.49 71.95 391.28C71.95 391.07 72.03 390.9 72.19 390.75C72.35 390.61 72.59 390.5 72.89 390.42C73.19 390.34 73.56 390.31 74 390.31ZM74 390.71C73.68 390.71 73.41 390.73 73.19 390.77C72.97 390.81 72.8 390.87 72.68 390.96C72.56 391.04 72.51 391.14 72.51 391.26C72.51 391.38 72.56 391.48 72.68 391.56C72.8 391.64 72.96 391.7 73.19 391.75C73.41 391.79 73.68 391.81 74 391.81C74.32 391.81 74.59 391.79 74.81 391.75C75.03 391.71 75.2 391.65 75.32 391.56C75.44 391.48 75.49 391.38 75.49 391.26C75.49 391.14 75.43 391.04 75.32 390.96C75.2 390.88 75.03 390.81 74.81 390.77C74.59 390.73 74.32 390.71 74 390.71ZM74.28 388.92V389.83H73.73V388.92H74.28ZM74.28 392.06V392.94H73.73V392.06H74.28Z" fill="black"/>
<path d="M79.4701 390.94C79.4701 391.37 79.3901 391.8 79.2201 392.22C79.0501 392.65 78.8301 393.03 78.5601 393.36C78.2801 393.69 77.9801 393.94 77.6601 394.11L77.3201 393.67C77.6201 393.52 77.9001 393.3 78.1601 393.01C78.4201 392.72 78.6301 392.38 78.7801 392.02C78.9401 391.65 79.0101 391.3 79.0201 390.94V389.89H79.4701V390.94ZM81.0001 389.64V390.11H77.5501V389.64H81.0001ZM79.5801 390.94C79.5801 391.27 79.6501 391.61 79.8001 391.95C79.9501 392.29 80.1501 392.6 80.4001 392.88C80.6501 393.16 80.9301 393.37 81.2301 393.51L80.9101 393.95C80.5801 393.79 80.2801 393.55 80.0101 393.23C79.7401 392.91 79.5301 392.55 79.3701 392.15C79.2101 391.75 79.1401 391.34 79.1401 390.93V389.88H79.5901V390.94H79.5801ZM82.3401 388.99V395.33H81.7801V388.99H82.3401ZM83.4001 391.56V392.04H82.2101V391.56H83.4001Z" fill="black"/>
<path d="M91.3901 394.05V394.52H85.5801V394.05H91.3901ZM86.8301 389.44V390.59H90.1201V389.44H90.6701V392.69H86.2601V389.44H86.8301ZM86.8301 392.23H90.1201V391.05H86.8301V392.23ZM88.7401 392.52V394.2H88.1901V392.52H88.7401Z" fill="black"/>
<path d="M92.71 389.62V393.54H92.15V389.62H92.71ZM92.66 393.25C93.16 393.25 93.66 393.23 94.14 393.18C94.63 393.14 95.12 393.06 95.63 392.95L95.7 393.43C95.18 393.54 94.67 393.61 94.17 393.66C93.67 393.7 93.17 393.73 92.65 393.73H92.15V393.25H92.66ZM96.81 388.99V395.33H96.25V388.99H96.81ZM97.82 390.6V391.07H96.63V390.6H97.82ZM97.82 392.47V392.94H96.63V392.47H97.82Z" fill="black"/>
<path d="M104.6 392.37L100.98 392.61L100.9 392.1L104.6 391.93V392.37ZM104.97 390.42V393.89H104.41V390.88H101.04V390.42H104.97Z" fill="black"/>
<path d="M110.91 392.37L107.29 392.61L107.21 392.1L110.91 391.93V392.37ZM111.29 390.42V393.89H110.73V390.88H107.36V390.42H111.29Z" fill="black"/>
<path d="M19.31 14.95H21.98V16.28H25.99V13.61H20.65V12.28H19.31V9.60002H20.65V8.27002H25.99V9.60002H27.32V10.93H24.65V9.60002H21.98V12.27H27.32V13.6H28.66V16.27H27.32V17.61H20.64V16.27H19.3V14.95H19.31Z" fill="black"/>
<path d="M29.99 8.27002H32.66V13.61H34V12.28H35.33V10.94H38V12.28H36.67V13.61H35.33V14.95H36.67V16.28H38V17.62H35.33V16.28H34V14.95H32.66V17.62H29.99V8.27002Z" fill="black"/>
<path d="M40.6801 10.9401H48.6901V12.2801H50.0301V13.6101H47.3601V12.2801H43.3501V17.6201H40.6801V10.9401Z" fill="black"/>
<path d="M51.3601 10.9401H59.3701V12.2801H60.7101V13.6101H58.0401V12.2801H54.0301V17.6201H51.3601V10.9401Z" fill="black"/>
<path d="M62.04 10.9401H70.05V12.2801H71.39V13.6101H68.72V12.2801H64.71V17.6201H62.04V10.9401Z" fill="black"/>
<path d="M72.7301 10.9401H80.7401V12.2801H82.0801V13.6101H79.4101V12.2801H75.4001V17.6201H72.7301V10.9401Z" fill="black"/>
<path d="M83.41 13.61H84.75V16.28H83.41V13.61ZM87.42 13.61H88.75V16.28H87.42V13.61ZM91.43 13.61H92.77V16.28H91.43V13.61Z" fill="black"/>
<path d="M153.18 441.32C153.18 430.55 133.05 421.81 108.21 421.81C83.37 421.81 63.24 430.54 63.24 441.32C63.24 452.09 83.37 460.83 108.21 460.83C110.4 460.83 112.54 460.76 114.64 460.63L126.62 470.31L124.69 459.48C141.37 456.62 153.18 449.57 153.18 441.32Z" fill="white"/>
<path d="M153.18 441.32C153.18 430.55 133.05 421.81 108.21 421.81C83.37 421.81 63.24 430.54 63.24 441.32C63.24 452.09 83.37 460.83 108.21 460.83C110.4 460.83 112.54 460.76 114.64 460.63L126.62 470.31L124.69 459.48C141.37 456.62 153.18 449.57 153.18 441.32Z" stroke="black" stroke-width="0.4572" stroke-miterlimit="10" stroke-linecap="round" stroke-linejoin="round"/>
<path d="M76.76 438.49C77.07 438.49 77.36 438.56 77.61 438.69C77.86 438.82 78.06 439.01 78.21 439.24C78.36 439.47 78.43 439.75 78.43 440.05C78.43 440.35 78.35 440.62 78.21 440.86C78.07 441.1 77.87 441.28 77.61 441.42C77.36 441.55 77.07 441.62 76.76 441.62C76.45 441.62 76.16 441.55 75.91 441.42C75.66 441.29 75.46 441.1 75.31 440.86C75.16 440.62 75.09 440.35 75.09 440.05C75.09 439.75 75.16 439.48 75.31 439.24C75.46 439 75.65 438.82 75.91 438.69C76.17 438.56 76.45 438.49 76.76 438.49ZM76.76 438.98C76.55 438.98 76.36 439.03 76.19 439.12C76.02 439.21 75.89 439.34 75.79 439.5C75.69 439.66 75.64 439.85 75.64 440.05C75.64 440.26 75.69 440.44 75.79 440.6C75.89 440.76 76.02 440.89 76.19 440.98C76.36 441.07 76.55 441.12 76.76 441.12C76.97 441.12 77.16 441.08 77.33 440.98C77.5 440.88 77.63 440.76 77.73 440.6C77.83 440.44 77.88 440.25 77.88 440.05C77.88 439.84 77.83 439.66 77.73 439.5C77.63 439.34 77.5 439.21 77.33 439.12C77.16 439.03 76.97 438.98 76.76 438.98ZM76.52 442.24V443.97H75.96V442.24H76.52ZM80.23 443.78V444.24H75.97V443.78H80.23ZM79.94 438.04V442.72H79.38V438.04H79.94ZM80.89 439.97V440.44H79.76V439.97H80.89Z" fill="black"/>
<path d="M82.2399 438.43V441.17H81.6699V438.43H82.2399ZM82.1599 441.03C82.7499 441.03 83.2599 441.02 83.6799 440.99C84.0999 440.96 84.5299 440.9 84.9599 440.81L85.0299 441.27C84.5899 441.36 84.1499 441.42 83.7099 441.46C83.2799 441.49 82.7599 441.51 82.1599 441.51H81.6799V441.04H82.1599V441.03ZM84.4499 441.99C84.8899 441.99 85.2699 442.04 85.5899 442.13C85.9099 442.23 86.1499 442.36 86.3199 442.54C86.4899 442.72 86.5699 442.93 86.5699 443.18C86.5699 443.43 86.4899 443.64 86.3199 443.82C86.1499 444 85.9099 444.13 85.5899 444.23C85.2699 444.32 84.8899 444.37 84.4499 444.37C84.0099 444.37 83.6299 444.32 83.3099 444.23C82.9899 444.14 82.7399 444 82.5799 443.82C82.4099 443.64 82.3299 443.43 82.3299 443.18C82.3299 442.93 82.4099 442.71 82.5799 442.54C82.7499 442.36 82.9999 442.22 83.3099 442.13C83.6299 442.04 84.0099 441.99 84.4499 441.99ZM84.4499 442.44C84.1299 442.44 83.8499 442.47 83.6099 442.53C83.3699 442.59 83.1899 442.68 83.0699 442.79C82.9499 442.9 82.8799 443.04 82.8799 443.19C82.8799 443.34 82.9399 443.47 83.0699 443.58C83.1899 443.69 83.3799 443.78 83.6099 443.83C83.8499 443.89 84.1299 443.92 84.4499 443.92C84.7699 443.92 85.0499 443.89 85.2899 443.83C85.5299 443.77 85.7099 443.69 85.8299 443.58C85.9599 443.47 86.0199 443.34 86.0199 443.19C86.0199 443.03 85.9599 442.9 85.8299 442.79C85.6999 442.68 85.5199 442.59 85.2899 442.53C85.0499 442.47 84.7699 442.44 84.4499 442.44ZM86.1399 438.8V439.24H84.1699V438.8H86.1399ZM86.1399 439.93V440.37H84.1699V439.93H86.1399ZM86.5499 438.05V441.95H85.9899V438.05H86.5499Z" fill="black"/>
<path d="M91.35 439.06V439.52H87.58V439.06H91.35ZM89.49 440.05C89.79 440.05 90.05 440.11 90.29 440.24C90.53 440.36 90.71 440.54 90.84 440.76C90.97 440.98 91.04 441.23 91.04 441.51C91.04 441.79 90.97 442.04 90.84 442.26C90.71 442.48 90.52 442.65 90.29 442.77C90.05 442.89 89.79 442.95 89.49 442.95C89.19 442.95 88.93 442.89 88.69 442.77C88.45 442.65 88.27 442.48 88.13 442.25C88 442.03 87.93 441.78 87.93 441.5C87.93 441.22 87.99 440.97 88.13 440.75C88.26 440.53 88.45 440.36 88.69 440.23C88.93 440.12 89.2 440.05 89.49 440.05ZM89.49 440.52C89.29 440.52 89.12 440.56 88.97 440.65C88.81 440.73 88.69 440.85 88.6 441C88.51 441.15 88.47 441.32 88.47 441.51C88.47 441.7 88.51 441.87 88.6 442.02C88.69 442.17 88.81 442.29 88.97 442.37C89.12 442.45 89.3 442.49 89.49 442.49C89.68 442.49 89.86 442.45 90.01 442.37C90.16 442.29 90.29 442.17 90.37 442.02C90.46 441.87 90.5 441.7 90.51 441.51C90.51 441.32 90.46 441.15 90.37 441C90.28 440.85 90.16 440.73 90.01 440.65C89.86 440.56 89.69 440.52 89.49 440.52ZM89.77 438.12V439.28H89.2V438.12H89.77ZM92.52 438.05V444.39H91.97V438.05H92.52ZM93.58 440.66V441.13H92.39V440.66H93.58Z" fill="black"/>
<path d="M95.71 439.87C95.71 440.3 95.65 440.73 95.52 441.14C95.4 441.55 95.22 441.92 95 442.25C94.77 442.58 94.51 442.83 94.21 443.02L93.85 442.6C94.14 442.43 94.39 442.2 94.6 441.91C94.81 441.62 94.98 441.3 95.09 440.95C95.2 440.6 95.26 440.24 95.26 439.88V438.65H95.7V439.87H95.71ZM95.81 439.85C95.81 440.19 95.86 440.53 95.97 440.86C96.08 441.2 96.23 441.5 96.43 441.78C96.63 442.06 96.87 442.28 97.14 442.44L96.82 442.87C96.52 442.69 96.26 442.44 96.04 442.12C95.82 441.8 95.66 441.44 95.54 441.05C95.43 440.65 95.37 440.25 95.37 439.84V438.63H95.8V439.85H95.81ZM97.69 440.32V440.79H96.44V440.32H97.69ZM98.05 438.18V444.06H97.52V438.18H98.05ZM99.36 438.05V444.39H98.82V438.05H99.36Z" fill="black"/>
<path d="M106.05 443.1V443.57H100.24V443.1H106.05ZM103.13 438.44C103.58 438.44 103.98 438.51 104.33 438.65C104.68 438.79 104.96 438.98 105.15 439.22C105.35 439.47 105.45 439.75 105.45 440.08C105.45 440.4 105.35 440.69 105.15 440.93C104.95 441.18 104.68 441.37 104.33 441.5C103.98 441.63 103.58 441.7 103.13 441.7C102.68 441.7 102.28 441.63 101.93 441.5C101.58 441.37 101.31 441.17 101.11 440.93C100.91 440.68 100.81 440.4 100.81 440.08C100.81 439.76 100.91 439.47 101.11 439.22C101.31 438.97 101.58 438.78 101.93 438.65C102.29 438.52 102.68 438.45 103.13 438.44ZM103.13 438.9C102.79 438.9 102.48 438.95 102.21 439.04C101.94 439.14 101.73 439.27 101.58 439.45C101.43 439.63 101.35 439.84 101.35 440.07C101.35 440.3 101.43 440.51 101.58 440.69C101.73 440.87 101.94 441.01 102.21 441.11C102.48 441.21 102.79 441.26 103.13 441.26C103.47 441.26 103.78 441.21 104.05 441.11C104.32 441.01 104.53 440.87 104.68 440.69C104.83 440.51 104.91 440.31 104.91 440.07C104.91 439.84 104.83 439.63 104.68 439.45C104.53 439.27 104.32 439.13 104.05 439.04C103.78 438.95 103.47 438.9 103.13 438.9ZM102.23 441.32V443.22H101.68V441.32H102.23ZM104.61 441.32V443.22H104.04V441.32H104.61Z" fill="black"/>
<path d="M108.42 440.58L108.97 438.64H109.5L109.11 440.58H108.42ZM109.77 440.57L110.32 438.63H110.85L110.46 440.57H109.77Z" fill="black"/>
<path d="M117.41 441.6V442.07H111.6V441.6H117.41ZM112.91 438.37V440.42H112.35V438.37H112.91ZM116.73 440.18V440.64H112.35V440.18H116.73ZM114.76 441.85V444.39H114.2V441.85H114.76Z" fill="black"/>
<path d="M119.23 438.65L118.68 440.59H118.15L118.54 438.65H119.23ZM120.59 438.65L120.04 440.59H119.51L119.9 438.65H120.59Z" fill="black"/>
<path d="M124.77 438.35C125.09 438.35 125.37 438.41 125.62 438.53C125.87 438.65 126.07 438.82 126.21 439.05C126.35 439.27 126.42 439.53 126.42 439.81C126.42 440.09 126.35 440.35 126.21 440.57C126.07 440.79 125.87 440.96 125.62 441.08C125.37 441.2 125.08 441.26 124.77 441.26C124.45 441.26 124.17 441.2 123.91 441.08C123.66 440.96 123.46 440.79 123.32 440.56C123.18 440.33 123.11 440.09 123.11 439.8C123.11 439.52 123.18 439.26 123.32 439.04C123.46 438.82 123.66 438.64 123.91 438.52C124.17 438.41 124.45 438.35 124.77 438.35ZM124.77 438.83C124.56 438.83 124.36 438.87 124.19 438.95C124.02 439.03 123.89 439.15 123.79 439.3C123.69 439.45 123.65 439.62 123.65 439.81C123.65 440 123.69 440.17 123.79 440.32C123.89 440.47 124.02 440.59 124.19 440.67C124.36 440.75 124.55 440.8 124.77 440.8C124.98 440.8 125.18 440.76 125.34 440.67C125.51 440.59 125.64 440.47 125.74 440.32C125.84 440.17 125.88 440 125.88 439.81C125.88 439.62 125.83 439.45 125.74 439.3C125.65 439.15 125.51 439.03 125.34 438.95C125.18 438.87 124.99 438.83 124.77 438.83ZM124.64 441.77V442.54H127.64V441.77H128.2V444.3H124.09V441.77H124.64ZM124.64 443.84H127.64V442.99H124.64V443.84ZM128.2 438.05V441.45H127.64V438.05H128.2Z" fill="black"/>
<path d="M130.24 438.67V442.59H129.69V438.67H130.24ZM130.21 442.26C130.73 442.26 131.24 442.24 131.75 442.19C132.25 442.14 132.76 442.07 133.28 441.96L133.36 442.44C132.82 442.55 132.29 442.63 131.78 442.68C131.27 442.73 130.75 442.75 130.21 442.75H129.7V442.26H130.21ZM134.51 438.05V444.39H133.96V438.05H134.51Z" fill="black"/>
<path d="M138.84 438.67V439.13H136.44V442.56H135.88V438.68H138.84V438.67ZM136.37 442.33C136.99 442.33 137.52 442.31 137.97 442.28C138.42 442.25 138.87 442.19 139.33 442.11L139.4 442.59C138.93 442.67 138.47 442.73 138.02 442.76C137.57 442.79 137.02 442.8 136.37 442.8H135.87V442.33H136.37ZM140.51 438.05V444.4H139.95V438.05H140.51ZM141.57 440.55V441.02H140.38V440.55H141.57Z" fill="black"/>
<path d="M142.58 443.85C142.5 443.85 142.42 443.83 142.35 443.79C142.28 443.75 142.22 443.69 142.18 443.62C142.14 443.55 142.12 443.47 142.12 443.39C142.12 443.31 142.14 443.23 142.18 443.16C142.22 443.09 142.28 443.04 142.35 442.99C142.42 442.95 142.5 442.93 142.58 442.93C142.66 442.93 142.74 442.95 142.81 442.99C142.88 443.03 142.93 443.09 142.98 443.16C143.02 443.23 143.04 443.31 143.04 443.39C143.04 443.47 143.02 443.55 142.98 443.62C142.94 443.69 142.88 443.75 142.81 443.79C142.74 443.83 142.67 443.85 142.58 443.85Z" fill="black"/>
</g>
<defs>
<clipPath id="clip0_94_323">
<rect width="159.99" height="479.96" fill="white"/>
</clipPath>
</defs>
</svg>
