<svg width="394" height="263" viewBox="0 0 394 263" fill="none" xmlns="http://www.w3.org/2000/svg">
<g clip-path="url(#clip0_94_276)">
<path d="M0 0V263H394V0H0ZM171.39 233.6H20.36V133H171.39V233.6ZM171.39 126.6H20.36V26H171.39V126.6ZM329.03 233.6H178V133H329.03V233.6ZM329.03 126.6H178V26H329.03V126.6Z" fill="#FFC2DE"/>
<path d="M64.46 106.2C33.41 106.2 8.23999 114.93 8.23999 125.71C8.23999 133.96 23.01 141.01 43.86 143.86L42.99 159.8L56.42 145.02C59.05 145.15 61.73 145.22 64.46 145.22C95.51 145.22 120.68 136.49 120.68 125.71C120.68 114.94 95.51 106.2 64.46 106.2Z" fill="white"/>
<path d="M64.46 106.2C33.41 106.2 8.23999 114.93 8.23999 125.71C8.23999 133.96 23.01 141.01 43.86 143.86L42.99 159.8L56.42 145.02C59.05 145.15 61.73 145.22 64.46 145.22C95.51 145.22 120.68 136.49 120.68 125.71C120.68 114.94 95.51 106.2 64.46 106.2Z" stroke="black" stroke-width="0.5113" stroke-miterlimit="10" stroke-linecap="round" stroke-linejoin="round"/>
<path d="M19.12 122.93C19.43 122.93 19.71 123.02 19.95 123.2C20.19 123.38 20.38 123.64 20.52 123.97C20.66 124.3 20.72 124.69 20.73 125.14C20.73 125.58 20.66 125.97 20.52 126.31C20.38 126.65 20.2 126.9 19.95 127.08C19.71 127.26 19.43 127.35 19.12 127.35C18.81 127.35 18.53 127.26 18.29 127.08C18.05 126.9 17.86 126.64 17.72 126.31C17.58 125.98 17.52 125.59 17.52 125.14C17.52 124.7 17.58 124.31 17.72 123.97C17.86 123.64 18.04 123.38 18.29 123.2C18.54 123.02 18.81 122.93 19.12 122.93ZM19.12 123.43C18.91 123.43 18.73 123.5 18.57 123.65C18.41 123.79 18.28 123.99 18.19 124.25C18.1 124.51 18.05 124.81 18.05 125.14C18.05 125.48 18.1 125.78 18.19 126.04C18.28 126.3 18.41 126.5 18.57 126.64C18.73 126.78 18.91 126.85 19.12 126.85C19.33 126.85 19.52 126.78 19.68 126.64C19.84 126.5 19.97 126.3 20.06 126.04C20.15 125.78 20.19 125.48 20.19 125.14C20.19 124.8 20.15 124.5 20.06 124.24C19.97 123.98 19.85 123.78 19.68 123.64C19.52 123.5 19.33 123.43 19.12 123.43ZM22.34 122.44V128.78H21.78V122.44H22.34ZM23.39 124.97V125.45H22.2V124.97H23.39Z" fill="black"/>
<path d="M31.3801 127.49V127.96H25.5701V127.49H31.3801ZM28.4601 122.84C28.9101 122.84 29.3101 122.91 29.6601 123.05C30.0101 123.19 30.2901 123.38 30.4801 123.62C30.6701 123.86 30.7701 124.15 30.7701 124.48C30.7701 124.8 30.6701 125.09 30.4801 125.33C30.2801 125.58 30.0101 125.77 29.6601 125.9C29.3101 126.03 28.9101 126.1 28.4601 126.1C28.0101 126.1 27.6101 126.03 27.2601 125.9C26.9101 125.77 26.6401 125.57 26.4401 125.33C26.2401 125.08 26.1501 124.8 26.1501 124.48C26.1501 124.16 26.2501 123.87 26.4401 123.62C26.6301 123.37 26.9101 123.18 27.2601 123.05C27.6101 122.91 28.0101 122.84 28.4601 122.84ZM28.4601 123.29C28.1201 123.29 27.8101 123.34 27.5401 123.43C27.2701 123.52 27.0601 123.66 26.9101 123.84C26.7601 124.02 26.6801 124.23 26.6801 124.46C26.6801 124.69 26.7601 124.9 26.9101 125.08C27.0601 125.26 27.2701 125.4 27.5401 125.5C27.8101 125.6 28.1201 125.65 28.4601 125.65C28.8001 125.65 29.1101 125.6 29.3801 125.5C29.6501 125.4 29.8601 125.26 30.0101 125.08C30.1601 124.9 30.2401 124.7 30.2401 124.46C30.2401 124.23 30.1601 124.02 30.0101 123.84C29.8601 123.66 29.6501 123.52 29.3801 123.43C29.1101 123.34 28.8001 123.29 28.4601 123.29ZM27.5601 125.71V127.61H27.0101V125.71H27.5601ZM29.9401 125.71V127.61H29.3701V125.71H29.9401Z" fill="black"/>
<path d="M37.67 125.41V125.86H31.89V125.41H37.67ZM34.92 123.15C34.92 123.48 34.8 123.78 34.57 124.04C34.34 124.3 34.04 124.52 33.66 124.69C33.28 124.86 32.87 124.97 32.42 125.02L32.22 124.58C32.6 124.54 32.96 124.45 33.29 124.32C33.63 124.19 33.9 124.02 34.1 123.81C34.31 123.61 34.41 123.39 34.41 123.15V122.96H34.91V123.15H34.92ZM37.15 122.72V123.17H32.42V122.72H37.15ZM36.96 126.55V128.69H32.6V126.55H36.96ZM33.15 127V128.23H36.41V127H33.15ZM35.15 123.15C35.15 123.39 35.25 123.61 35.45 123.81C35.65 124.01 35.93 124.18 36.26 124.32C36.6 124.45 36.96 124.54 37.35 124.58L37.14 125.02C36.7 124.97 36.28 124.85 35.9 124.69C35.52 124.52 35.21 124.31 34.98 124.04C34.75 123.77 34.63 123.48 34.63 123.15V122.96H35.13V123.15H35.15Z" fill="black"/>
<path d="M45.85 125.99V126.46H40.04V125.99H45.85ZM41.35 122.76V124.81H40.79V122.76H41.35ZM45.16 124.58V125.04H40.78V124.58H45.16ZM43.19 126.24V128.78H42.63V126.24H43.19Z" fill="black"/>
<path d="M49.63 123.12C49.63 123.74 49.53 124.32 49.32 124.87C49.12 125.42 48.8 125.92 48.37 126.38C47.94 126.84 47.38 127.24 46.71 127.57L46.4 127.13C46.99 126.84 47.48 126.49 47.88 126.1C48.28 125.7 48.58 125.27 48.78 124.78C48.98 124.29 49.08 123.77 49.08 123.21V123.12H49.63ZM49.36 123.12V123.59H46.7V123.12H49.36ZM51.27 122.44V128.78H50.71V122.44H51.27ZM52.3 125.01V125.48H51.12V125.01H52.3Z" fill="black"/>
<path d="M55.3901 122.81V123.81H57.1601V122.81H57.7101V125.75H54.8301V122.81H55.3901ZM55.3901 125.3H57.1601V124.27H55.3901V125.3ZM57.9301 126.84C57.9301 127.16 57.8201 127.46 57.6101 127.72C57.4001 127.98 57.1201 128.21 56.7701 128.39C56.4201 128.57 56.0301 128.7 55.6101 128.77L55.4001 128.33C55.7601 128.28 56.1001 128.18 56.4101 128.04C56.7201 127.9 56.9701 127.72 57.1601 127.51C57.3501 127.3 57.4401 127.08 57.4501 126.84V126.64H57.9201V126.84H57.9301ZM59.8501 126.46V126.92H55.6601V126.46H59.8501ZM59.3701 124.07V124.54H57.5501V124.07H59.3701ZM58.0501 126.84C58.0501 127.07 58.1401 127.29 58.3301 127.5C58.5201 127.71 58.7701 127.89 59.0801 128.03C59.3901 128.18 59.7301 128.28 60.0901 128.33L59.8801 128.77C59.4601 128.7 59.0701 128.58 58.7201 128.39C58.3701 128.2 58.0901 127.98 57.8801 127.72C57.6701 127.45 57.5601 127.16 57.5601 126.84V126.64H58.0401V126.84H58.0501ZM59.7601 122.44V126.14H59.2001V122.44H59.7601Z" fill="black"/>
<path d="M66.6001 125.16V125.62H60.8301V125.16H66.6001ZM63.9001 126.86C63.9001 127.17 63.7901 127.46 63.5701 127.73C63.3501 127.99 63.0601 128.21 62.7001 128.39C62.3401 128.57 61.9501 128.68 61.5201 128.75L61.3201 128.32C61.6801 128.27 62.0201 128.18 62.3401 128.04C62.6601 127.9 62.9201 127.73 63.1201 127.52C63.3201 127.31 63.4201 127.1 63.4201 126.87V126.79H63.8901V126.86H63.9001ZM63.0201 122.68V123.14H61.3301V122.68H63.0201ZM65.8401 126.5V126.94H61.5801V126.5H65.8401ZM63.2701 122.92V122.95C63.2701 123.13 63.2601 123.3 63.2501 123.47C63.2401 123.64 63.2101 123.83 63.1701 124.05C63.1301 124.28 63.0601 124.52 62.9801 124.77L62.4401 124.68C62.5301 124.42 62.6001 124.17 62.6401 123.95C62.6801 123.73 62.7101 123.55 62.7201 123.4C62.7301 123.25 62.7301 123.09 62.7301 122.92V122.68H63.2801V122.92H63.2701ZM63.9901 125.85V126.66H63.4301V125.85H63.9901ZM63.9901 126.86C63.9901 127.09 64.0901 127.3 64.2801 127.51C64.4801 127.72 64.7401 127.89 65.0601 128.03C65.3901 128.17 65.7301 128.27 66.1001 128.31L65.8901 128.74C65.4601 128.68 65.0701 128.56 64.7101 128.38C64.3501 128.21 64.0601 127.99 63.8401 127.72C63.6201 127.46 63.5101 127.17 63.5101 126.85V126.77H63.9801V126.86H63.9901ZM64.1201 124.06V125.45H63.5701V124.06H64.1201ZM65.6301 122.68V123.14H63.7901V122.68H65.6301ZM65.9501 122.94C65.9501 123.12 65.9501 123.29 65.9401 123.46C65.9301 123.63 65.9201 123.82 65.8901 124.05C65.8601 124.28 65.8201 124.52 65.7701 124.78L65.2301 124.71C65.2801 124.46 65.3201 124.23 65.3501 124.02C65.3801 123.81 65.3901 123.62 65.4001 123.47C65.4101 123.32 65.4101 123.16 65.4101 122.99V122.95V122.7H65.9501V122.94Z" fill="black"/>
<path d="M74.76 126.18V126.63H68.98V126.18H74.76ZM74.42 123.03V123.47H69.28V123.03H74.42ZM70.29 127.04V128.42H69.72V127.04H70.29ZM74.11 128.18V128.64H69.72V128.18H74.11ZM71.86 123.75C72.29 123.75 72.66 123.79 72.97 123.86C73.28 123.93 73.51 124.04 73.67 124.19C73.83 124.33 73.91 124.51 73.91 124.72C73.91 124.93 73.83 125.1 73.67 125.25C73.51 125.4 73.27 125.5 72.97 125.58C72.67 125.66 72.29 125.69 71.86 125.69C71.43 125.69 71.06 125.66 70.75 125.58C70.44 125.51 70.21 125.4 70.05 125.25C69.89 125.1 69.81 124.93 69.81 124.72C69.81 124.51 69.89 124.34 70.05 124.19C70.21 124.05 70.45 123.94 70.75 123.86C71.05 123.79 71.42 123.75 71.86 123.75ZM71.86 124.16C71.54 124.16 71.27 124.18 71.05 124.22C70.83 124.26 70.66 124.32 70.54 124.41C70.42 124.49 70.37 124.59 70.37 124.71C70.37 124.83 70.42 124.93 70.54 125.01C70.66 125.09 70.82 125.15 71.05 125.2C71.27 125.24 71.54 125.26 71.86 125.26C72.18 125.26 72.45 125.24 72.67 125.2C72.89 125.16 73.06 125.1 73.18 125.01C73.3 124.93 73.35 124.83 73.35 124.71C73.35 124.59 73.29 124.49 73.18 124.41C73.06 124.33 72.89 124.26 72.67 124.22C72.45 124.18 72.18 124.16 71.86 124.16ZM72.14 122.36V123.27H71.59V122.36H72.14ZM72.14 125.5V126.38H71.59V125.5H72.14Z" fill="black"/>
<path d="M77.3301 124.38C77.3301 124.81 77.2501 125.24 77.0801 125.66C76.9101 126.09 76.6901 126.47 76.4201 126.8C76.1401 127.13 75.8401 127.38 75.5201 127.55L75.1801 127.11C75.4801 126.96 75.7601 126.74 76.0201 126.45C76.2801 126.16 76.4901 125.82 76.6401 125.46C76.8001 125.09 76.8701 124.74 76.8801 124.38V123.33H77.3301V124.38ZM78.8601 123.09V123.56H75.4101V123.09H78.8601ZM77.4301 124.38C77.4301 124.71 77.5001 125.05 77.6501 125.39C77.8001 125.73 78.0001 126.04 78.2501 126.32C78.5001 126.6 78.7801 126.81 79.0801 126.95L78.7601 127.39C78.4301 127.23 78.1301 126.99 77.8601 126.67C77.5901 126.35 77.3801 125.99 77.2201 125.59C77.0601 125.19 76.9901 124.78 76.9901 124.37V123.32H77.4401V124.38H77.4301ZM80.2001 122.44V128.78H79.6401V122.44H80.2001ZM81.2601 125V125.48H80.0701V125H81.2601Z" fill="black"/>
<path d="M89.2501 127.5V127.97H83.4401V127.5H89.2501ZM84.6901 122.89V124.04H87.9801V122.89H88.5301V126.14H84.1201V122.89H84.6901ZM84.6901 125.67H87.9801V124.49H84.6901V125.67ZM86.6001 125.97V127.65H86.0501V125.97H86.6001Z" fill="black"/>
<path d="M90.57 123.06V126.98H90.01V123.06H90.57ZM90.52 126.69C91.02 126.69 91.52 126.67 92 126.62C92.49 126.58 92.98 126.5 93.49 126.39L93.56 126.87C93.04 126.98 92.53 127.05 92.03 127.1C91.53 127.14 91.03 127.17 90.51 127.17H90.01V126.69H90.52ZM94.67 122.44V128.78H94.11V122.44H94.67ZM95.68 124.04V124.51H94.49V124.04H95.68ZM95.68 125.92V126.39H94.49V125.92H95.68Z" fill="black"/>
<path d="M102.46 125.82L98.84 126.06L98.76 125.55L102.46 125.38V125.82ZM102.83 123.86V127.33H102.27V124.32H98.9V123.86H102.83Z" fill="black"/>
<path d="M108.77 125.82L105.15 126.06L105.07 125.55L108.77 125.38V125.82ZM109.15 123.86V127.33H108.59V124.32H105.22V123.86H109.15Z" fill="black"/>
<path d="M380.35 190.66C380.35 179.89 360.22 171.15 335.38 171.15C310.54 171.15 290.41 179.88 290.41 190.66C290.41 201.44 310.54 210.17 335.38 210.17C337.57 210.17 339.71 210.1 341.81 209.97L352.55 224.75L351.85 208.81C368.54 205.96 380.35 198.91 380.35 190.66Z" fill="white"/>
<path d="M380.35 190.66C380.35 179.89 360.22 171.15 335.38 171.15C310.54 171.15 290.41 179.88 290.41 190.66C290.41 201.44 310.54 210.17 335.38 210.17C337.57 210.17 339.71 210.1 341.81 209.97L352.55 224.75L351.85 208.81C368.54 205.96 380.35 198.91 380.35 190.66Z" stroke="black" stroke-width="0.4572" stroke-miterlimit="10" stroke-linecap="round" stroke-linejoin="round"/>
<path d="M303.93 187.83C304.24 187.83 304.53 187.9 304.78 188.03C305.03 188.16 305.23 188.35 305.38 188.58C305.53 188.81 305.6 189.09 305.6 189.39C305.6 189.69 305.52 189.96 305.38 190.2C305.24 190.44 305.04 190.62 304.78 190.76C304.53 190.89 304.25 190.96 303.93 190.96C303.61 190.96 303.33 190.89 303.08 190.76C302.83 190.63 302.63 190.44 302.48 190.2C302.33 189.96 302.26 189.69 302.26 189.39C302.26 189.09 302.33 188.82 302.48 188.58C302.63 188.34 302.82 188.16 303.08 188.03C303.34 187.9 303.62 187.83 303.93 187.83ZM303.93 188.32C303.72 188.32 303.53 188.37 303.36 188.46C303.19 188.55 303.06 188.68 302.96 188.84C302.86 189 302.81 189.19 302.81 189.39C302.81 189.6 302.86 189.78 302.96 189.94C303.06 190.1 303.19 190.23 303.36 190.32C303.53 190.41 303.72 190.46 303.93 190.46C304.14 190.46 304.33 190.42 304.5 190.32C304.67 190.22 304.8 190.1 304.9 189.94C305 189.78 305.05 189.59 305.05 189.39C305.05 189.18 305 189 304.9 188.84C304.8 188.68 304.67 188.55 304.5 188.46C304.33 188.37 304.14 188.32 303.93 188.32ZM303.69 191.58V193.31H303.13V191.58H303.69ZM307.4 193.12V193.58H303.14V193.12H307.4ZM307.11 187.38V192.06H306.55V187.38H307.11ZM308.06 189.31V189.78H306.93V189.31H308.06Z" fill="black"/>
<path d="M309.41 187.77V190.51H308.84V187.77H309.41ZM309.33 190.37C309.92 190.37 310.43 190.36 310.85 190.33C311.27 190.3 311.7 190.24 312.13 190.15L312.2 190.61C311.76 190.7 311.32 190.76 310.88 190.8C310.44 190.83 309.93 190.85 309.33 190.85H308.85V190.38H309.33V190.37ZM311.62 191.33C312.06 191.33 312.44 191.38 312.76 191.47C313.08 191.57 313.32 191.7 313.49 191.88C313.66 192.06 313.74 192.27 313.74 192.52C313.74 192.77 313.66 192.98 313.49 193.16C313.32 193.34 313.08 193.47 312.76 193.57C312.44 193.66 312.06 193.71 311.62 193.71C311.18 193.71 310.8 193.66 310.48 193.57C310.16 193.48 309.91 193.34 309.75 193.16C309.58 192.98 309.5 192.77 309.5 192.52C309.5 192.27 309.58 192.05 309.75 191.88C309.92 191.7 310.17 191.56 310.48 191.47C310.79 191.38 311.18 191.33 311.62 191.33ZM311.62 191.77C311.3 191.77 311.02 191.8 310.78 191.86C310.54 191.92 310.36 192.01 310.24 192.12C310.11 192.23 310.05 192.37 310.05 192.52C310.05 192.67 310.11 192.8 310.24 192.91C310.36 193.02 310.55 193.11 310.78 193.16C311.02 193.22 311.3 193.25 311.62 193.25C311.94 193.25 312.22 193.22 312.46 193.16C312.7 193.1 312.88 193.02 313 192.91C313.13 192.8 313.19 192.67 313.19 192.52C313.19 192.36 313.13 192.23 313 192.12C312.87 192.01 312.69 191.92 312.46 191.86C312.22 191.81 311.94 191.78 311.62 191.77ZM313.31 188.14V188.58H311.34V188.14H313.31ZM313.31 189.27V189.71H311.34V189.27H313.31ZM313.72 187.38V191.28H313.16V187.38H313.72Z" fill="black"/>
<path d="M318.52 188.4V188.86H314.75V188.4H318.52ZM316.67 189.39C316.97 189.39 317.23 189.45 317.47 189.58C317.71 189.7 317.89 189.88 318.02 190.1C318.15 190.32 318.22 190.57 318.22 190.85C318.22 191.13 318.15 191.38 318.02 191.6C317.89 191.82 317.7 191.99 317.47 192.11C317.23 192.23 316.97 192.29 316.67 192.29C316.37 192.29 316.11 192.23 315.87 192.11C315.63 191.99 315.45 191.82 315.31 191.59C315.18 191.37 315.11 191.12 315.11 190.84C315.11 190.56 315.17 190.31 315.31 190.09C315.44 189.87 315.63 189.7 315.87 189.57C316.1 189.46 316.37 189.39 316.67 189.39ZM316.67 189.86C316.47 189.86 316.3 189.9 316.15 189.99C316 190.07 315.87 190.19 315.79 190.34C315.71 190.49 315.66 190.66 315.66 190.85C315.66 191.04 315.7 191.21 315.79 191.36C315.88 191.51 316 191.63 316.15 191.71C316.3 191.79 316.48 191.83 316.67 191.83C316.86 191.83 317.04 191.79 317.19 191.71C317.34 191.63 317.47 191.51 317.55 191.36C317.64 191.21 317.68 191.04 317.69 190.85C317.69 190.66 317.64 190.49 317.55 190.34C317.46 190.19 317.34 190.07 317.19 189.99C317.03 189.9 316.86 189.86 316.67 189.86ZM316.94 187.46V188.62H316.38V187.46H316.94ZM319.69 187.38V193.72H319.13V187.38H319.69ZM320.75 190V190.47H319.56V190H320.75Z" fill="black"/>
<path d="M322.89 189.21C322.89 189.64 322.83 190.07 322.7 190.48C322.58 190.89 322.4 191.26 322.18 191.59C321.96 191.92 321.69 192.17 321.39 192.36L321.03 191.94C321.32 191.77 321.57 191.54 321.78 191.25C321.99 190.96 322.16 190.64 322.27 190.29C322.38 189.94 322.44 189.58 322.44 189.22V187.99H322.88V189.21H322.89ZM322.98 189.19C322.98 189.53 323.03 189.87 323.14 190.2C323.25 190.54 323.4 190.84 323.6 191.12C323.8 191.4 324.04 191.62 324.31 191.78L323.99 192.21C323.69 192.03 323.43 191.78 323.21 191.46C322.99 191.14 322.83 190.78 322.71 190.39C322.6 189.99 322.54 189.59 322.54 189.18V187.97H322.97V189.19H322.98ZM324.86 189.66V190.13H323.61V189.66H324.86ZM325.22 187.52V193.4H324.69V187.52H325.22ZM326.53 187.38V193.72H325.99V187.38H326.53Z" fill="black"/>
<path d="M333.23 192.44V192.91H327.42V192.44H333.23ZM330.3 187.78C330.75 187.78 331.15 187.85 331.5 187.99C331.85 188.13 332.13 188.32 332.32 188.56C332.52 188.81 332.62 189.09 332.62 189.42C332.62 189.74 332.52 190.03 332.32 190.27C332.12 190.52 331.85 190.71 331.5 190.84C331.15 190.97 330.75 191.04 330.3 191.04C329.85 191.04 329.45 190.97 329.1 190.84C328.75 190.71 328.48 190.51 328.28 190.27C328.08 190.02 327.98 189.74 327.98 189.42C327.98 189.1 328.08 188.81 328.28 188.56C328.48 188.31 328.75 188.12 329.1 187.99C329.46 187.85 329.86 187.78 330.3 187.78ZM330.3 188.24C329.96 188.24 329.65 188.29 329.38 188.38C329.11 188.48 328.9 188.61 328.75 188.79C328.6 188.97 328.52 189.18 328.52 189.41C328.52 189.64 328.6 189.85 328.75 190.03C328.9 190.21 329.11 190.35 329.38 190.45C329.65 190.55 329.96 190.6 330.3 190.6C330.64 190.6 330.95 190.55 331.22 190.45C331.49 190.35 331.7 190.21 331.85 190.03C332 189.85 332.08 189.65 332.08 189.41C332.08 189.18 332 188.97 331.85 188.79C331.7 188.61 331.49 188.47 331.22 188.38C330.95 188.29 330.65 188.24 330.3 188.24ZM329.41 190.65V192.55H328.86V190.65H329.41ZM331.78 190.65V192.55H331.21V190.65H331.78Z" fill="black"/>
<path d="M335.59 189.92L336.14 187.98H336.67L336.28 189.92H335.59ZM336.94 189.91L337.49 187.97H338.02L337.63 189.91H336.94Z" fill="black"/>
<path d="M344.58 190.94V191.41H338.77V190.94H344.58ZM340.08 187.71V189.76H339.52V187.71H340.08ZM343.9 189.52V189.98H339.52V189.52H343.9ZM341.93 191.19V193.73H341.37V191.19H341.93Z" fill="black"/>
<path d="M346.41 187.99L345.86 189.93H345.33L345.72 187.99H346.41ZM347.76 187.98L347.21 189.92H346.68L347.07 187.98H347.76Z" fill="black"/>
<path d="M351.94 187.69C352.26 187.69 352.54 187.75 352.79 187.87C353.04 187.99 353.24 188.16 353.38 188.39C353.52 188.61 353.59 188.87 353.59 189.15C353.59 189.43 353.52 189.69 353.38 189.91C353.24 190.13 353.04 190.3 352.79 190.42C352.54 190.54 352.25 190.6 351.94 190.6C351.62 190.6 351.34 190.54 351.08 190.42C350.83 190.3 350.63 190.13 350.49 189.9C350.35 189.67 350.28 189.43 350.28 189.14C350.28 188.86 350.35 188.6 350.49 188.38C350.63 188.16 350.83 187.98 351.08 187.86C351.34 187.75 351.63 187.69 351.94 187.69ZM351.94 188.17C351.73 188.17 351.53 188.21 351.36 188.29C351.19 188.37 351.06 188.49 350.96 188.64C350.86 188.79 350.82 188.96 350.82 189.15C350.82 189.34 350.86 189.51 350.96 189.66C351.06 189.81 351.19 189.93 351.36 190.01C351.53 190.09 351.72 190.14 351.94 190.14C352.15 190.14 352.35 190.1 352.51 190.01C352.68 189.93 352.81 189.81 352.91 189.66C353.01 189.51 353.05 189.34 353.05 189.15C353.05 188.96 353 188.79 352.91 188.64C352.82 188.49 352.68 188.37 352.51 188.29C352.35 188.21 352.16 188.17 351.94 188.17ZM351.81 191.11V191.88H354.81V191.11H355.37V193.64H351.26V191.11H351.81ZM351.81 193.18H354.81V192.33H351.81V193.18ZM355.37 187.38V190.78H354.81V187.38H355.37Z" fill="black"/>
<path d="M357.41 188.01V191.93H356.86V188.01H357.41ZM357.38 191.6C357.9 191.6 358.41 191.58 358.92 191.53C359.42 191.48 359.93 191.41 360.45 191.3L360.53 191.78C359.99 191.89 359.46 191.97 358.95 192.02C358.44 192.07 357.92 192.09 357.38 192.09H356.87V191.6H357.38ZM361.68 187.38V193.72H361.13V187.38H361.68Z" fill="black"/>
<path d="M366.01 188.01V188.47H363.61V191.9H363.05V188.02H366.01V188.01ZM363.55 191.67C364.17 191.67 364.7 191.65 365.15 191.62C365.6 191.59 366.05 191.53 366.51 191.45L366.58 191.93C366.11 192.01 365.65 192.07 365.2 192.1C364.75 192.13 364.2 192.14 363.55 192.14H363.05V191.67H363.55ZM367.68 187.38V193.73H367.12V187.38H367.68ZM368.74 189.89V190.36H367.55V189.89H368.74Z" fill="black"/>
<path d="M369.76 193.19C369.68 193.19 369.6 193.17 369.53 193.13C369.46 193.09 369.4 193.03 369.36 192.96C369.32 192.89 369.3 192.81 369.3 192.73C369.3 192.65 369.32 192.57 369.36 192.5C369.4 192.43 369.46 192.38 369.53 192.33C369.6 192.29 369.68 192.27 369.76 192.27C369.84 192.27 369.92 192.29 369.99 192.33C370.06 192.37 370.11 192.43 370.16 192.5C370.2 192.57 370.22 192.65 370.22 192.73C370.22 192.81 370.2 192.89 370.16 192.96C370.12 193.03 370.06 193.09 369.99 193.13C369.92 193.17 369.84 193.19 369.76 193.19Z" fill="black"/>
<path d="M348.86 27.64V31.25H347.06V36.66H350.67V29.44H352.47V27.64H356.08V29.44H357.88V36.66H356.08V38.46H354.28V34.85H356.08V31.24H352.47V38.46H350.67V40.26H347.06V38.46H345.26V29.44H347.06V27.64H348.86Z" fill="black"/>
<path d="M357.88 42.0801V45.6901H350.66V47.4901H352.46V49.2901H354.26V52.9001H352.46V51.1001H350.66V49.3001H348.86V51.1001H347.06V52.9001H345.26V49.3001H347.06V47.5001H348.86V45.7001H345.25V42.0901H357.88V42.0801Z" fill="black"/>
<path d="M354.27 56.51V67.34H352.47V69.14H350.67V65.53H352.47V60.12H345.25V56.51H354.27Z" fill="black"/>
<path d="M354.27 70.95V81.78H352.47V83.58H350.67V79.97H352.47V74.56H345.25V70.95H354.27Z" fill="black"/>
<path d="M354.27 85.39V96.22H352.47V98.02H350.67V94.41H352.47V89H345.25V85.39H354.27Z" fill="black"/>
<path d="M354.27 99.8201V110.65H352.47V112.45H350.67V108.84H352.47V103.43H345.25V99.8201H354.27Z" fill="black"/>
<path d="M350.66 114.26V116.06H347.05V114.26H350.66ZM350.66 119.68V121.48H347.05V119.68H350.66ZM350.66 125.09V126.89H347.05V125.09H350.66Z" fill="black"/>
</g>
<defs>
<clipPath id="clip0_94_276">
<rect width="394" height="263" fill="white"/>
</clipPath>
</defs>
</svg>
