<svg width="394" height="263" viewBox="0 0 394 263" fill="none" xmlns="http://www.w3.org/2000/svg">
<g clip-path="url(#clip0_94_266)">
<path d="M0 0V263H394V0H0ZM171.39 233.6H20.36V133H171.39V233.6ZM171.39 126.6H20.36V26H171.39V126.6ZM329.03 233.6H178V133H329.03V233.6ZM329.03 126.6H178V26H329.03V126.6Z" fill="white"/>
<path d="M381.49 132.22C380.41 128.73 377.54 125.89 373.72 125.02C372.81 124.81 371.91 124.73 371.02 124.76C371.25 124.55 371.47 124.33 371.68 124.09C374.28 121.16 374.96 117.19 373.82 113.71C372.52 113.44 371.17 113.43 369.87 113.65C369.45 112.39 368.8 111.22 367.95 110.19C364.35 110.82 361.17 113.3 359.82 116.98C359.58 117.63 359.41 118.3 359.31 118.96C358.88 118.11 358.33 117.31 357.66 116.57C355.01 113.68 351.13 112.6 347.56 113.38C347.16 114.65 347.01 115.98 347.1 117.31C345.81 117.6 344.57 118.12 343.47 118.86C343.72 122.42 345.77 125.76 349.15 127.52C348.9 127.6 348.66 127.68 348.41 127.78C344.77 129.24 342.39 132.49 341.86 136.11C342.91 136.93 344.1 137.55 345.37 137.93C345.18 139.24 345.24 140.58 345.54 141.88C348.87 142.88 352.6 142.2 355.42 139.83C355.32 143.52 357.15 146.86 360.02 148.84C361.22 148.26 362.3 147.46 363.2 146.49C364.29 147.24 365.52 147.78 366.82 148.08C369.17 145.54 370.22 141.92 369.36 138.37C372.37 139.91 375.86 139.89 378.78 138.49C378.88 137.16 378.72 135.83 378.33 134.56C379.5 133.99 380.58 133.2 381.49 132.22Z" fill="url(#paint0_radial_94_266)"/>
<path d="M360.67 98.28V26" stroke="#FFC2DB" stroke-miterlimit="10"/>
<path d="M360.67 233.6V161.31" stroke="#FFC2DB" stroke-miterlimit="10"/>
</g>
<defs>
<radialGradient id="paint0_radial_94_266" cx="0" cy="0" r="1" gradientUnits="userSpaceOnUse" gradientTransform="translate(361.667 129.525) scale(19.5729 19.5729)">
<stop stop-color="#FF7DA5"/>
<stop offset="0.0213" stop-color="#FF80A7"/>
<stop offset="0.2206" stop-color="#FF9CB9"/>
<stop offset="0.4212" stop-color="#FFB0C7"/>
<stop offset="0.6224" stop-color="#FFBCCE"/>
<stop offset="0.8249" stop-color="#FFC0D1"/>
</radialGradient>
<clipPath id="clip0_94_266">
<rect width="394" height="263" fill="white"/>
</clipPath>
</defs>
</svg>
