<svg width="394" height="263" viewBox="0 0 394 263" fill="none" xmlns="http://www.w3.org/2000/svg">
<g clip-path="url(#clip0_94_238)">
<path d="M0 0V263H394V0H0ZM171.39 233.6H20.36V133H171.39V233.6ZM171.39 126.6H20.36V26H171.39V126.6ZM329.03 233.6H178V133H329.03V233.6ZM329.03 126.6H178V26H329.03V126.6Z" fill="#FFDCEC"/>
<path d="M375.88 50.95C375.88 47.33 372.94 44.39 369.32 44.39C368.88 44.39 368.45 44.43 368.03 44.52C368.05 44.29 368.07 44.06 368.07 43.83C368.07 40.21 365.13 37.27 361.51 37.27C357.89 37.27 354.95 40.21 354.95 43.83C354.95 43.88 354.96 43.94 354.96 43.99C354.5 43.89 354.03 43.83 353.54 43.83C349.92 43.83 346.98 46.77 346.98 50.39C346.98 52.74 348.22 54.8 350.08 55.96C349.46 56.96 349.09 58.14 349.09 59.41C349.09 63.03 352.03 65.97 355.65 65.97C357.58 65.97 359.31 65.13 360.51 63.8C361.7 65.49 363.66 66.6 365.88 66.6C369.5 66.6 372.44 63.66 372.44 60.04C372.44 58.97 372.18 57.96 371.72 57.06C374.16 56.09 375.88 53.72 375.88 50.95Z" fill="#FFA4B8" stroke="#895F55" stroke-width="0.8" stroke-miterlimit="10" stroke-linecap="round" stroke-linejoin="round"/>
<path d="M364.71 50.53C363.95 49.77 362.7 49.77 361.94 50.53L361.43 51.04L360.92 50.53C360.16 49.77 358.91 49.77 358.15 50.53C357.39 51.29 357.39 52.54 358.15 53.3L358.66 53.81L361.43 56.58L364.2 53.81L364.71 53.3C365.47 52.54 365.47 51.29 364.71 50.53Z" fill="#A88074" stroke="#895F55" stroke-width="0.6619" stroke-miterlimit="10" stroke-linecap="round" stroke-linejoin="round"/>
<path d="M375.88 130.52C375.88 126.9 372.94 123.96 369.32 123.96C368.88 123.96 368.45 124 368.03 124.09C368.05 123.86 368.07 123.63 368.07 123.4C368.07 119.78 365.13 116.84 361.51 116.84C357.89 116.84 354.95 119.78 354.95 123.4C354.95 123.45 354.96 123.51 354.96 123.56C354.5 123.46 354.03 123.4 353.54 123.4C349.92 123.4 346.98 126.34 346.98 129.96C346.98 132.31 348.22 134.37 350.08 135.53C349.46 136.53 349.09 137.71 349.09 138.98C349.09 142.6 352.03 145.54 355.65 145.54C357.58 145.54 359.31 144.7 360.51 143.37C361.7 145.06 363.66 146.17 365.88 146.17C369.5 146.17 372.44 143.23 372.44 139.61C372.44 138.54 372.18 137.53 371.72 136.63C374.16 135.67 375.88 133.3 375.88 130.52Z" fill="#FFA4B8" stroke="#895F55" stroke-width="0.8" stroke-miterlimit="10" stroke-linecap="round" stroke-linejoin="round"/>
<path d="M364.71 130.1C363.95 129.34 362.7 129.34 361.94 130.1L361.43 130.61L360.92 130.1C360.16 129.34 358.91 129.34 358.15 130.1C357.39 130.86 357.39 132.11 358.15 132.87L358.66 133.38L361.43 136.15L364.2 133.38L364.71 132.87C365.47 132.11 365.47 130.86 364.71 130.1Z" fill="#A88074" stroke="#895F55" stroke-width="0.6619" stroke-miterlimit="10" stroke-linecap="round" stroke-linejoin="round"/>
<path d="M364.71 88.97C363.95 88.21 362.7 88.21 361.94 88.97L361.43 89.48L360.92 88.97C360.16 88.21 358.91 88.21 358.15 88.97C357.39 89.73 357.39 90.98 358.15 91.74L358.66 92.25L361.43 95.02L364.2 92.25L364.71 91.74C365.47 90.98 365.47 89.74 364.71 88.97Z" fill="#FF7B9E" stroke="#895F55" stroke-width="0.8" stroke-miterlimit="10" stroke-linecap="round" stroke-linejoin="round"/>
<path d="M364.71 169.63C363.95 168.87 362.7 168.87 361.94 169.63L361.43 170.14L360.92 169.63C360.16 168.87 358.91 168.87 358.15 169.63C357.39 170.39 357.39 171.64 358.15 172.4L358.66 172.91L361.43 175.68L364.2 172.91L364.71 172.4C365.47 171.64 365.47 170.39 364.71 169.63Z" fill="#FF7B9E" stroke="#895F55" stroke-width="0.8" stroke-miterlimit="10" stroke-linecap="round" stroke-linejoin="round"/>
<path d="M375.88 209.58C375.88 205.96 372.94 203.02 369.32 203.02C368.88 203.02 368.45 203.06 368.03 203.15C368.05 202.92 368.07 202.69 368.07 202.46C368.07 198.84 365.13 195.9 361.51 195.9C357.89 195.9 354.95 198.84 354.95 202.46C354.95 202.51 354.96 202.57 354.96 202.62C354.5 202.52 354.03 202.46 353.54 202.46C349.92 202.46 346.98 205.4 346.98 209.02C346.98 211.37 348.22 213.43 350.08 214.59C349.46 215.59 349.09 216.77 349.09 218.04C349.09 221.66 352.03 224.6 355.65 224.6C357.58 224.6 359.31 223.76 360.51 222.43C361.7 224.12 363.66 225.23 365.88 225.23C369.5 225.23 372.44 222.29 372.44 218.67C372.44 217.6 372.18 216.59 371.72 215.69C374.16 214.73 375.88 212.36 375.88 209.58Z" fill="#FFA4B8" stroke="#895F55" stroke-width="0.8" stroke-miterlimit="10" stroke-linecap="round" stroke-linejoin="round"/>
<path d="M364.71 209.16C363.95 208.4 362.7 208.4 361.94 209.16L361.43 209.67L360.92 209.16C360.16 208.4 358.91 208.4 358.15 209.16C357.39 209.92 357.39 211.17 358.15 211.93L358.66 212.44L361.43 215.21L364.2 212.44L364.71 211.93C365.47 211.17 365.47 209.92 364.71 209.16Z" fill="#A88074" stroke="#895F55" stroke-width="0.6619" stroke-miterlimit="10" stroke-linecap="round" stroke-linejoin="round"/>
</g>
<defs>
<clipPath id="clip0_94_238">
<rect width="394" height="263" fill="white"/>
</clipPath>
</defs>
</svg>
