<svg width="160" height="480" viewBox="0 0 160 480" fill="none" xmlns="http://www.w3.org/2000/svg">
<path d="M0 0V479.96H159.99V0H0ZM147.99 388.77H12V298.38H147.99V388.77ZM147.99 293.58H12V203.19H147.99V293.58ZM147.99 198.39H12V108H147.99V198.39ZM147.99 103.19H12V12.8H147.99V103.19Z" fill="#C2DFFF"/>
<path d="M50.79 378.31C49.52 379.3 48.45 380.52 47.63 381.89C46.15 381.28 44.56 380.95 42.95 380.93C40.69 384.73 40.46 389.6 42.78 393.74C45.1 397.88 49.36 400.23 53.79 400.29C57.28 397.58 59.28 393.13 58.64 388.43C58 383.73 54.88 379.99 50.79 378.31Z" fill="#FFA9C4" stroke="#7DA5FF" stroke-width="1.0214" stroke-miterlimit="10" stroke-linecap="round" stroke-linejoin="round"/>
<path d="M45.98 430.65C47.56 430.34 49.06 429.72 50.41 428.86C51.47 430.06 52.74 431.07 54.17 431.81C57.89 429.42 60.27 425.17 60.05 420.43C59.83 415.69 57.06 411.68 53.13 409.65C48.79 410.51 45.02 413.6 43.49 418.09C41.96 422.57 43.07 427.31 45.98 430.65Z" fill="#FFA9C4" stroke="#7DA5FF" stroke-width="1.0214" stroke-miterlimit="10" stroke-linecap="round" stroke-linejoin="round"/>
<path d="M74.05 424.61C74.62 423.1 74.89 421.5 74.87 419.9C76.45 419.64 77.98 419.09 79.36 418.27C79.3 413.85 76.94 409.58 72.81 407.26C68.67 404.95 63.8 405.18 60 407.44C58.44 411.58 59.07 416.41 62.07 420.08C65.07 423.75 69.68 425.32 74.05 424.61Z" fill="#FFA9C4" stroke="#7DA5FF" stroke-width="1.0214" stroke-miterlimit="10" stroke-linecap="round" stroke-linejoin="round"/>
<path d="M79.99 395.02C78.85 393.88 77.5 392.98 76.03 392.34C76.44 390.79 76.57 389.17 76.38 387.57C72.32 385.81 67.46 386.21 63.65 389.03C59.84 391.85 58.05 396.39 58.56 400.78C61.69 403.9 66.36 405.31 70.94 404.08C75.52 402.85 78.85 399.29 79.99 395.02Z" fill="#FFA9C4" stroke="#7DA5FF" stroke-width="1.0214" stroke-miterlimit="10" stroke-linecap="round" stroke-linejoin="round"/>
<path d="M28.84 404.28C29.69 405.65 30.79 406.84 32.08 407.79C31.33 409.2 30.83 410.75 30.65 412.35C34.2 414.99 39.02 415.71 43.37 413.83C47.72 411.95 50.5 407.95 51.02 403.55C48.68 399.8 44.46 397.35 39.73 397.51C34.98 397.67 30.93 400.38 28.84 404.28Z" fill="#FFA9C4" stroke="#7DA5FF" stroke-width="1.0214" stroke-miterlimit="10" stroke-linecap="round" stroke-linejoin="round"/>
<path d="M129.54 7.83C136.27 15.36 143.24 22.66 150.48 29.71C152.82 31.99 158.47 30.43 155.19 27.23C148.33 20.55 141.7 13.66 135.32 6.53C134.26 5.34 132.37 4.23 130.7 4.78C129.4 5.21 128.4 6.55 129.54 7.83Z" fill="#FFC0D1"/>
<path d="M3.41999 372.85C10.58 380.87 18.39 388.22 26.84 394.87C28.17 395.92 34.71 395.47 32.94 394.07C24.73 387.6 17.15 380.47 10.19 372.67C8.84999 371.18 2.62999 371.96 3.41999 372.85Z" fill="#FFC0D1"/>
<path d="M18.34 458.45C19.57 459.4 20.97 460.1 22.46 460.53C22.26 462.06 22.34 463.62 22.71 465.13C26.81 466.31 31.41 465.33 34.7 462.16C37.99 458.99 39.14 454.43 38.12 450.29C34.74 447.69 30.1 446.92 25.88 448.66C21.66 450.4 18.91 454.22 18.34 458.45Z" fill="#FFC0D1" stroke="#7DA5FF" stroke-width="0.7267" stroke-miterlimit="10" stroke-linecap="round" stroke-linejoin="round"/>
<path d="M57.47 471.85C58.28 471.07 58.93 470.15 59.39 469.13C60.46 469.44 61.59 469.55 62.71 469.44C63.99 466.64 63.79 463.25 61.87 460.55C59.96 457.86 56.82 456.55 53.75 456.83C51.53 458.97 50.48 462.2 51.27 465.41C52.07 468.62 54.51 470.99 57.47 471.85Z" fill="#FFD4E4" stroke="#7DA5FF" stroke-width="0.7267" stroke-miterlimit="10" stroke-linecap="round" stroke-linejoin="round"/>
<path d="M41.97 100.35C40.56 100.15 39.12 100.21 37.74 100.54C37.21 99.22 36.45 98.01 35.47 96.96C31.66 97.86 28.41 100.71 27.2 104.73C25.99 108.75 27.11 112.92 29.79 115.78C33.67 116.34 37.73 114.88 40.34 111.58C42.94 108.28 43.42 103.99 41.97 100.35Z" fill="#FFC0D1" stroke="#7DA5FF" stroke-width="0.5" stroke-miterlimit="10" stroke-linecap="round" stroke-linejoin="round"/>
<path d="M13.81 84.39C13.07 85.04 12.45 85.82 12 86.7C11.07 86.38 10.08 86.24 9.09999 86.28C7.84999 88.69 7.87999 91.68 9.44999 94.13C11.01 96.58 13.71 97.87 16.43 97.76C18.48 95.98 19.54 93.18 18.98 90.32C18.41 87.46 16.38 85.27 13.81 84.39Z" fill="#FFCAE0" stroke="#7DA5FF" stroke-width="0.5" stroke-miterlimit="10" stroke-linecap="round" stroke-linejoin="round"/>
<path d="M132.65 287.16C131.74 287.88 130.97 288.76 130.39 289.76C129.32 289.33 128.17 289.1 127.01 289.09C125.4 291.84 125.26 295.35 126.95 298.32C128.64 301.29 131.73 302.96 134.91 302.98C137.41 301.01 138.83 297.8 138.34 294.42C137.85 291.04 135.6 288.35 132.65 287.16Z" fill="#FFA6BF" stroke="#7DA5FF" stroke-width="0.5" stroke-miterlimit="10" stroke-linecap="round" stroke-linejoin="round"/>
<path d="M153.01 299.42C152.1 299.22 151.15 299.19 150.23 299.33C149.95 298.44 149.51 297.61 148.92 296.88C146.38 297.28 144.12 298.98 143.13 301.55C142.14 304.12 142.67 306.9 144.28 308.9C146.79 309.46 149.52 308.71 151.38 306.68C153.25 304.65 153.77 301.87 153.01 299.42Z" fill="#FFB8D5" stroke="#7DA5FF" stroke-width="0.5" stroke-miterlimit="10" stroke-linecap="round" stroke-linejoin="round"/>
<path d="M64.55 447.47C67.5213 447.47 69.93 444.488 69.93 440.81C69.93 437.132 67.5213 434.15 64.55 434.15C61.5787 434.15 59.17 437.132 59.17 440.81C59.17 444.488 61.5787 447.47 64.55 447.47Z" fill="white"/>
<path d="M25.72 442.5C31.1987 442.5 35.64 437.002 35.64 430.22C35.64 423.438 31.1987 417.94 25.72 417.94C20.2413 417.94 15.8 423.438 15.8 430.22C15.8 437.002 20.2413 442.5 25.72 442.5Z" fill="white"/>
<path d="M118.48 402.94C119.999 402.94 121.23 401.418 121.23 399.54C121.23 397.662 119.999 396.14 118.48 396.14C116.961 396.14 115.73 397.662 115.73 399.54C115.73 401.418 116.961 402.94 118.48 402.94Z" fill="white"/>
<path d="M72.24 448.52C72.8199 448.52 73.29 448.05 73.29 447.47C73.29 446.89 72.8199 446.42 72.24 446.42C71.6601 446.42 71.19 446.89 71.19 447.47C71.19 448.05 71.6601 448.52 72.24 448.52Z" fill="white"/>
<path d="M15.81 419.06C16.7158 419.06 17.45 418.326 17.45 417.42C17.45 416.514 16.7158 415.78 15.81 415.78C14.9043 415.78 14.17 416.514 14.17 417.42C14.17 418.326 14.9043 419.06 15.81 419.06Z" fill="white"/>
<mask id="mask0_156_144" style="mask-type:luminance" maskUnits="userSpaceOnUse" x="72" y="392" width="88" height="88">
<path d="M159.99 392.3H72.32V479.97H159.99V392.3Z" fill="white"/>
</mask>
<g mask="url(#mask0_156_144)">
<path d="M155.21 406.12C152.4 405.54 149.51 405.51 146.69 406C145.79 403.29 144.39 400.76 142.55 398.55C134.79 399.91 127.94 405.25 125.03 413.18C122.12 421.11 123.89 429.61 128.94 435.67C136.66 437.25 144.99 434.79 150.6 428.48C156.22 422.16 157.69 413.6 155.21 406.12Z" fill="#FFC0D1" stroke="#7DA5FF" stroke-miterlimit="10" stroke-linecap="round" stroke-linejoin="round"/>
<path d="M78.84 460.33C81.1 462.1 83.67 463.42 86.4 464.25C86 467.08 86.11 469.96 86.77 472.76C94.32 475.02 102.84 473.3 108.98 467.51C115.13 461.72 117.34 453.32 115.54 445.65C109.34 440.78 100.79 439.26 92.95 442.4C85.11 445.52 79.97 452.53 78.84 460.33Z" fill="#FFC0D1" stroke="#7DA5FF" stroke-miterlimit="10" stroke-linecap="round" stroke-linejoin="round"/>
<path d="M119.57 491.29C122.27 490.31 124.75 488.83 126.89 486.94C129.08 488.78 131.59 490.2 134.31 491.12C140.22 485.9 143.26 477.77 141.59 469.49C139.92 461.21 133.96 454.89 126.49 452.37C119.08 455.06 113.27 461.52 111.79 469.83C110.31 478.14 113.54 486.21 119.57 491.29Z" fill="#FFC0D1" stroke="#7DA5FF" stroke-miterlimit="10" stroke-linecap="round" stroke-linejoin="round"/>
<path d="M166.49 465C166.7 462.14 166.37 459.27 165.53 456.54C168.1 455.3 170.43 453.59 172.39 451.49C170.05 443.96 163.89 437.85 155.65 435.98C147.41 434.11 139.21 436.95 133.84 442.73C133.26 450.59 136.76 458.54 143.74 463.3C150.72 468.06 159.39 468.41 166.49 465Z" fill="#FFC0D1" stroke="#7DA5FF" stroke-miterlimit="10" stroke-linecap="round" stroke-linejoin="round"/>
<path d="M94.62 406.55C93.76 409.29 93.43 412.16 93.62 415.01C90.83 415.63 88.17 416.76 85.79 418.36C86.34 426.22 90.95 433.58 98.54 437.29C106.13 441 114.77 440.11 121.31 435.71C123.67 428.19 122.08 419.65 116.38 413.42C110.68 407.19 102.32 404.86 94.62 406.55Z" fill="#FFC0D1" stroke="#7DA5FF" stroke-miterlimit="10" stroke-linecap="round" stroke-linejoin="round"/>
</g>
</svg>
