<svg width="160" height="480" viewBox="0 0 160 480" fill="none" xmlns="http://www.w3.org/2000/svg">
<g clip-path="url(#clip0_94_248)">
<path d="M0 0V479.96H159.99V0H0ZM147.99 388.77H12V298.38H147.99V388.77ZM147.99 293.58H12V203.19H147.99V293.58ZM147.99 198.39H12V108H147.99V198.39ZM147.99 103.19H12V12.8H147.99V103.19Z" fill="#FFDCEC"/>
<path d="M39.21 433.77C39.21 430.97 36.94 428.69 34.13 428.69C33.79 428.69 33.46 428.72 33.14 428.79C33.16 428.61 33.17 428.44 33.17 428.26C33.17 425.46 30.9 423.18 28.09 423.18C25.29 423.18 23.01 425.45 23.01 428.26C23.01 428.3 23.02 428.34 23.02 428.38C22.67 428.3 22.3 428.26 21.92 428.26C19.12 428.26 16.84 430.53 16.84 433.34C16.84 435.16 17.8 436.75 19.24 437.65C18.76 438.43 18.48 439.34 18.48 440.32C18.48 443.12 20.75 445.4 23.56 445.4C25.05 445.4 26.39 444.75 27.32 443.72C28.24 445.03 29.76 445.88 31.47 445.88C34.27 445.88 36.55 443.61 36.55 440.8C36.55 439.97 36.35 439.19 35.99 438.5C37.88 437.75 39.21 435.92 39.21 433.77Z" fill="#FFA4B8" stroke="#895F55" stroke-width="0.619" stroke-miterlimit="10" stroke-linecap="round" stroke-linejoin="round"/>
<path d="M30.56 433.44C29.97 432.85 29.01 432.85 28.42 433.44L28.03 433.83L27.64 433.44C27.05 432.85 26.09 432.85 25.5 433.44C24.91 434.03 24.91 434.99 25.5 435.58L25.89 435.97L28.03 438.11L30.17 435.97L30.56 435.58C31.15 435 31.15 434.03 30.56 433.44Z" fill="#A88074" stroke="#895F55" stroke-width="0.5121" stroke-miterlimit="10" stroke-linecap="round" stroke-linejoin="round"/>
<path d="M135.39 199.26C135.39 196.98 133.54 195.13 131.26 195.13C130.98 195.13 130.71 195.16 130.45 195.21C130.46 195.07 130.47 194.92 130.47 194.78C130.47 192.5 128.62 190.65 126.34 190.65C124.06 190.65 122.21 192.5 122.21 194.78C122.21 194.81 122.21 194.85 122.22 194.88C121.93 194.82 121.63 194.78 121.33 194.78C119.05 194.78 117.2 196.63 117.2 198.91C117.2 200.39 117.98 201.68 119.15 202.41C118.76 203.04 118.53 203.78 118.53 204.58C118.53 206.86 120.38 208.71 122.66 208.71C123.88 208.71 124.96 208.18 125.72 207.35C126.47 208.41 127.7 209.11 129.1 209.11C131.38 209.11 133.23 207.26 133.23 204.98C133.23 204.3 133.06 203.67 132.78 203.11C134.3 202.5 135.39 201.01 135.39 199.26Z" fill="#FFA4B8" stroke="#895F55" stroke-width="0.5036" stroke-miterlimit="10" stroke-linecap="round" stroke-linejoin="round"/>
<path d="M128.35 198.99C127.87 198.51 127.09 198.51 126.61 198.99L126.29 199.31L125.97 198.99C125.49 198.51 124.71 198.51 124.23 198.99C123.75 199.47 123.75 200.25 124.23 200.73L124.55 201.05L126.29 202.79L128.03 201.05L128.35 200.73C128.83 200.26 128.83 199.47 128.35 198.99Z" fill="#A88074" stroke="#895F55" stroke-width="0.4167" stroke-miterlimit="10" stroke-linecap="round" stroke-linejoin="round"/>
<path d="M91.69 433.77C91.69 430.97 89.42 428.69 86.61 428.69C86.27 428.69 85.94 428.72 85.62 428.79C85.64 428.61 85.65 428.44 85.65 428.26C85.65 425.46 83.38 423.18 80.57 423.18C77.77 423.18 75.49 425.45 75.49 428.26C75.49 428.3 75.5 428.34 75.5 428.38C75.15 428.3 74.78 428.26 74.4 428.26C71.6 428.26 69.32 430.53 69.32 433.34C69.32 435.16 70.28 436.75 71.72 437.65C71.24 438.43 70.96 439.34 70.96 440.32C70.96 443.12 73.23 445.4 76.04 445.4C77.53 445.4 78.87 444.75 79.8 443.72C80.72 445.03 82.24 445.88 83.95 445.88C86.75 445.88 89.03 443.61 89.03 440.8C89.03 439.97 88.83 439.19 88.47 438.5C90.35 437.75 91.69 435.92 91.69 433.77Z" fill="#FFA4B8" stroke="#895F55" stroke-width="0.619" stroke-miterlimit="10" stroke-linecap="round" stroke-linejoin="round"/>
<path d="M83.04 433.44C82.45 432.85 81.49 432.85 80.9 433.44L80.51 433.83L80.12 433.44C79.53 432.85 78.57 432.85 77.98 433.44C77.39 434.03 77.39 434.99 77.98 435.58L78.37 435.97L80.51 438.11L82.65 435.97L83.04 435.58C83.63 435 83.63 434.03 83.04 433.44Z" fill="#A88074" stroke="#895F55" stroke-width="0.5121" stroke-miterlimit="10" stroke-linecap="round" stroke-linejoin="round"/>
<path d="M109.63 432.11C108.96 431.44 107.86 431.44 107.19 432.11L106.74 432.56L106.29 432.11C105.62 431.44 104.52 431.44 103.85 432.11C103.18 432.78 103.18 433.88 103.85 434.55L104.3 435L106.74 437.44L109.18 435L109.63 434.55C110.3 433.88 110.3 432.78 109.63 432.11Z" fill="#FF7B9E" stroke="#895F55" stroke-width="0.6" stroke-miterlimit="10" stroke-linecap="round" stroke-linejoin="round"/>
<path d="M57.15 432.11C56.48 431.44 55.38 431.44 54.71 432.11L54.26 432.56L53.81 432.11C53.14 431.44 52.04 431.44 51.37 432.11C50.7 432.78 50.7 433.88 51.37 434.55L51.82 435L54.26 437.44L56.7 435L57.15 434.55C57.82 433.88 57.82 432.78 57.15 432.11Z" fill="#FF7B9E" stroke="#895F55" stroke-width="0.6" stroke-miterlimit="10" stroke-linecap="round" stroke-linejoin="round"/>
<path d="M79.47 292.02C78.09 290.64 75.84 290.64 74.46 292.02L73.54 292.94L72.62 292.02C71.24 290.64 68.99 290.64 67.61 292.02C66.23 293.4 66.23 295.65 67.61 297.03L68.53 297.95L73.54 302.96L78.55 297.95L79.47 297.03C80.85 295.66 80.85 293.4 79.47 292.02Z" fill="#FF7B9E" stroke="#895F55" stroke-width="0.7" stroke-miterlimit="10"/>
<path d="M39.45 100.36C38.07 98.98 35.82 98.98 34.44 100.36L33.52 101.28L32.6 100.36C31.22 98.98 28.97 98.98 27.59 100.36C26.21 101.74 26.21 103.99 27.59 105.37L28.51 106.29L33.52 111.3L38.53 106.29L39.45 105.37C40.82 103.99 40.82 101.73 39.45 100.36Z" fill="#FF7B9E" stroke="#895F55" stroke-width="0.7" stroke-miterlimit="10"/>
<path d="M144.16 433.77C144.16 430.97 141.89 428.69 139.08 428.69C138.74 428.69 138.41 428.72 138.09 428.79C138.11 428.61 138.12 428.44 138.12 428.26C138.12 425.46 135.85 423.18 133.04 423.18C130.24 423.18 127.96 425.45 127.96 428.26C127.96 428.3 127.97 428.34 127.97 428.38C127.62 428.3 127.25 428.26 126.87 428.26C124.07 428.26 121.79 430.53 121.79 433.34C121.79 435.16 122.75 436.75 124.19 437.65C123.71 438.43 123.43 439.34 123.43 440.32C123.43 443.12 125.7 445.4 128.51 445.4C130 445.4 131.34 444.75 132.27 443.72C133.19 445.03 134.71 445.88 136.42 445.88C139.22 445.88 141.5 443.61 141.5 440.8C141.5 439.97 141.3 439.19 140.94 438.5C142.83 437.75 144.16 435.92 144.16 433.77Z" fill="#FFA4B8" stroke="#895F55" stroke-width="0.619" stroke-miterlimit="10" stroke-linecap="round" stroke-linejoin="round"/>
<path d="M135.51 433.44C134.92 432.85 133.96 432.85 133.37 433.44L132.98 433.83L132.59 433.44C132 432.85 131.04 432.85 130.45 433.44C129.86 434.03 129.86 434.99 130.45 435.58L130.84 435.97L132.98 438.11L135.12 435.97L135.51 435.58C136.1 435 136.1 434.03 135.51 433.44Z" fill="#A88074" stroke="#895F55" stroke-width="0.5121" stroke-miterlimit="10" stroke-linecap="round" stroke-linejoin="round"/>
</g>
<defs>
<clipPath id="clip0_94_248">
<rect width="159.99" height="479.96" fill="white"/>
</clipPath>
</defs>
</svg>
