<svg width="160" height="480" viewBox="0 0 160 480" fill="none" xmlns="http://www.w3.org/2000/svg">
<g clip-path="url(#clip0_94_271)">
<path d="M0 0V479.96H159.99V0H0ZM147.99 388.77H12V298.38H147.99V388.77ZM147.99 293.58H12V203.19H147.99V293.58ZM147.99 198.39H12V108H147.99V198.39ZM147.99 103.19H12V12.8H147.99V103.19Z" fill="white"/>
<path d="M107.3 439.67C105.81 434.86 101.86 430.95 96.5999 429.75C95.3499 429.47 94.1099 429.36 92.8899 429.4C93.1999 429.11 93.5099 428.8 93.7999 428.48C97.3899 424.44 98.3199 418.97 96.7399 414.19C94.9399 413.82 93.0899 413.8 91.2999 414.11C90.7199 412.38 89.8299 410.76 88.6599 409.35C83.6999 410.22 79.3199 413.63 77.4599 418.7C77.1299 419.6 76.8999 420.51 76.7499 421.43C76.1599 420.26 75.4099 419.15 74.4799 418.14C70.8299 414.16 65.4799 412.66 60.5599 413.75C60.0099 415.5 59.7999 417.34 59.9199 419.16C58.1399 419.56 56.4399 420.28 54.9099 421.3C55.2599 426.21 58.0799 430.81 62.7299 433.23C62.3899 433.34 62.0499 433.46 61.7099 433.59C56.6999 435.6 53.4099 440.07 52.6899 445.06C54.1299 446.19 55.7799 447.04 57.5299 447.56C57.2699 449.37 57.3499 451.21 57.7699 453C62.3599 454.37 67.4999 453.45 71.3699 450.17C71.2399 455.26 73.7499 459.86 77.7099 462.58C79.3599 461.79 80.8499 460.68 82.0899 459.35C83.5999 460.38 85.2899 461.13 87.0699 461.54C90.3099 458.05 91.7599 453.06 90.5599 448.16C94.7099 450.29 99.5099 450.25 103.53 448.32C103.67 446.49 103.45 444.65 102.91 442.91C104.56 442.11 106.05 441.02 107.3 439.67Z" fill="url(#paint0_radial_94_271)"/>
<path d="M12 435.96H45.32" stroke="#FFC2DB" stroke-miterlimit="10"/>
<path d="M114.67 435.96H147.99" stroke="#FFC2DB" stroke-miterlimit="10"/>
</g>
<defs>
<radialGradient id="paint0_radial_94_271" cx="0" cy="0" r="1" gradientUnits="userSpaceOnUse" gradientTransform="translate(79.9939 435.958) scale(26.9633 26.9633)">
<stop stop-color="#FF7DA5"/>
<stop offset="0.0213" stop-color="#FF80A7"/>
<stop offset="0.2206" stop-color="#FF9CB9"/>
<stop offset="0.4212" stop-color="#FFB0C7"/>
<stop offset="0.6224" stop-color="#FFBCCE"/>
<stop offset="0.8249" stop-color="#FFC0D1"/>
</radialGradient>
<clipPath id="clip0_94_271">
<rect width="159.99" height="479.96" fill="white"/>
</clipPath>
</defs>
</svg>
