<svg width="280" height="270" viewBox="0 0 280 270" fill="none" xmlns="http://www.w3.org/2000/svg">
<rect y="63" width="172" height="115" fill="#D9D9D9"/>
<rect x="8.88666" y="74.3688" width="65.9333" height="43.9875" fill="white"/>
<rect x="77.7056" y="74.3688" width="65.9333" height="43.9875" fill="white"/>
<rect x="8.88666" y="121.156" width="65.9333" height="43.9875" fill="white"/>
<rect x="77.7056" y="121.156" width="65.9333" height="43.9875" fill="white"/>
<rect x="263" width="237" height="79" transform="rotate(90 263 0)" fill="#D9D9D9"/>
<rect x="189.925" y="6.32001" width="67.15" height="44.635" fill="white"/>
<rect x="189.925" y="53.325" width="67.15" height="44.635" fill="white"/>
<rect x="189.925" y="100.33" width="67.15" height="44.635" fill="white"/>
<rect x="189.925" y="147.335" width="67.15" height="44.635" fill="white"/>
<path d="M21.6857 216.501C21.4536 212.993 25.8454 211.238 28.0949 213.939C29.1009 215.147 30.7703 215.57 32.23 214.986C35.4941 213.682 38.5208 217.316 36.6469 220.29C35.8089 221.62 35.9226 223.339 36.9286 224.547C39.1781 227.248 36.6568 231.249 33.2493 230.386C31.7253 230 30.1262 230.639 29.2882 231.97C27.4143 234.944 22.8295 233.782 22.5973 230.275C22.4935 228.706 21.3915 227.383 19.8675 226.997C16.46 226.134 16.1476 221.414 19.4117 220.11C20.8715 219.526 21.7895 218.069 21.6857 216.501Z" fill="#FF859B"/>
<path d="M222.164 222.969C225.088 221.017 228.801 223.946 227.584 227.244C227.039 228.718 227.506 230.376 228.74 231.35C231.5 233.527 229.862 237.964 226.349 237.825C224.778 237.762 223.346 238.719 222.802 240.193C221.584 243.491 216.858 243.304 215.905 239.92C215.479 238.407 214.127 237.341 212.556 237.278C209.043 237.139 207.761 232.587 210.684 230.635C211.992 229.762 212.588 228.146 212.162 226.633C211.209 223.25 215.142 220.623 217.902 222.8C219.136 223.774 220.857 223.842 222.164 222.969Z" fill="#FF859B"/>
<path d="M180.821 47.395C185.878 43.8105 192.567 48.7907 190.583 54.6629C189.696 57.289 190.6 60.1878 192.824 61.8431C197.795 65.5445 195.126 73.4455 188.928 73.3732C186.156 73.3409 183.679 75.0971 182.792 77.7232C180.808 83.5953 172.469 83.4981 170.622 77.5813C169.796 74.9352 167.361 73.1218 164.589 73.0895C158.391 73.0172 155.907 65.0562 160.963 61.4717C163.225 59.8686 164.197 56.9918 163.371 54.3457C161.524 48.4289 168.328 43.6059 173.3 47.3073C175.523 48.9627 178.56 48.9981 180.821 47.395Z" fill="#FF6581"/>
<path d="M49.2413 208.124C49.1836 205.892 51.9334 204.793 53.4299 206.449C53.9004 206.97 54.575 207.259 55.2766 207.241C57.5083 207.184 58.6074 209.933 56.9508 211.43C56.43 211.9 56.1407 212.575 56.1588 213.277C56.2165 215.508 53.4667 216.607 51.9702 214.951C51.4997 214.43 50.8251 214.141 50.1235 214.159C47.8918 214.216 46.7927 211.467 48.4493 209.97C48.9702 209.5 49.2595 208.825 49.2413 208.124Z" fill="#FFB6C3"/>
<path d="M151.062 28.5345C151.384 27.6639 152.616 27.6639 152.938 28.5345L154.811 33.5978C154.913 33.8715 155.129 34.0873 155.402 34.1886L160.465 36.0621C161.336 36.3843 161.336 37.6157 160.465 37.9379L155.402 39.8114C155.129 39.9127 154.913 40.1285 154.811 40.4022L152.938 45.4655C152.616 46.3361 151.384 46.3361 151.062 45.4655L149.189 40.4022C149.087 40.1285 148.871 39.9127 148.598 39.8114L143.535 37.9379C142.664 37.6157 142.664 36.3843 143.535 36.0621L148.598 34.1886C148.871 34.0873 149.087 33.8715 149.189 33.5978L151.062 28.5345Z" fill="#FFDD66"/>
<path d="M38.5621 171.535C38.8843 170.664 40.1157 170.664 40.4379 171.535L44.6072 182.802C44.7085 183.076 44.9243 183.292 45.198 183.393L56.4655 187.562C57.3361 187.884 57.3361 189.116 56.4655 189.438L45.198 193.607C44.9243 193.708 44.7085 193.924 44.6072 194.198L40.4379 205.465C40.1157 206.336 38.8843 206.336 38.5621 205.465L34.3928 194.198C34.2915 193.924 34.0757 193.708 33.802 193.607L22.5345 189.438C21.6639 189.116 21.6639 187.884 22.5345 187.562L33.802 183.393C34.0757 183.292 34.2915 183.076 34.3928 182.802L38.5621 171.535Z" fill="#FFDD66"/>
<path d="M226.602 248.805C226.523 245.761 230.273 244.263 232.313 246.522C232.955 247.232 233.875 247.626 234.831 247.602C237.875 247.523 239.373 251.273 237.114 253.313C236.404 253.955 236.01 254.875 236.034 255.831C236.113 258.875 232.363 260.373 230.323 258.114C229.681 257.404 228.761 257.01 227.805 257.034C224.761 257.113 223.263 253.363 225.522 251.323C226.232 250.681 226.626 249.761 226.602 248.805Z" fill="#FF6581"/>
<path d="M245.815 223.494C245.413 217.423 253.015 214.385 256.908 219.06C258.649 221.151 261.539 221.883 264.066 220.873C269.715 218.615 274.954 224.906 271.711 230.053C270.26 232.356 270.457 235.33 272.198 237.421C276.092 242.096 271.728 249.023 265.83 247.529C263.192 246.861 260.424 247.967 258.974 250.269C255.73 255.417 247.794 253.407 247.392 247.336C247.213 244.621 245.305 242.33 242.668 241.662C236.769 240.168 236.229 231.999 241.879 229.741C244.405 228.731 245.994 226.209 245.815 223.494Z" fill="#FFB6C3"/>
</svg>
