<svg width="262" height="227" viewBox="0 0 262 227" fill="none" xmlns="http://www.w3.org/2000/svg">
<rect x="0.43512" y="52.964" width="180.3" height="99.7495" transform="rotate(-16.9181 0.43512 52.964)" fill="#FF859B"/>
<rect x="7.80493" y="58.1639" width="64.0786" height="38.7636" transform="rotate(-16.9181 7.80493 58.1639)" fill="white"/>
<rect x="74.3681" y="37.9287" width="64.0786" height="38.7636" transform="rotate(-16.9181 74.3681 37.9287)" fill="white"/>
<rect x="20.927" y="101.305" width="64.0786" height="38.7636" transform="rotate(-16.9181 20.927 101.305)" fill="white"/>
<rect x="87.4901" y="81.0695" width="64.0786" height="38.7636" transform="rotate(-16.9181 87.4901 81.0695)" fill="white"/>
<rect x="198.932" y="23.2328" width="65.7421" height="187.835" transform="rotate(20.9814 198.932 23.2328)" fill="#FFB6C3"/>
<rect x="202.176" y="30.5119" width="54.4721" height="32.8711" transform="rotate(20.9814 202.176 30.5119)" fill="white"/>
<rect x="188.724" y="65.588" width="54.4721" height="32.8711" transform="rotate(20.9814 188.724 65.588)" fill="white"/>
<rect x="175.273" y="100.664" width="54.4721" height="32.8711" transform="rotate(20.9814 175.273 100.664)" fill="white"/>
<rect x="161.821" y="135.74" width="54.4721" height="32.8711" transform="rotate(20.9814 161.821 135.74)" fill="white"/>
</svg>
