<svg width="150" height="38" viewBox="0 0 150 38" fill="none" xmlns="http://www.w3.org/2000/svg">
<path d="M29.92 20.68H31.36C32.2 20.68 32.68 20.2 32.68 19.36V1.32C32.68 0.48 32.2 0 31.36 0H29.92C29.08 0 28.6 0.48 28.6 1.32V7.48H23.04C22.2 7.48 21.72 7.96 21.72 8.8V10.04C21.72 10.88 22.2 11.36 23.04 11.36H28.6V19.36C28.6 20.2 29.08 20.68 29.92 20.68ZM18.68 0.6H17.28C16.44 0.6 15.96 1.08 15.96 1.92V6.28H4.04V1.92C4.04 1.08 3.56 0.6 2.72 0.6H1.32C0.48 0.6 0 1.08 0 1.92V17.56C0 18.4 0.48 18.88 1.32 18.88H18.68C19.52 18.88 20 18.4 20 17.56V1.92C20 1.08 19.52 0.6 18.68 0.6ZM15.96 15.12H4.04V10H15.96V15.12ZM31.68 33.76C25.68 32.68 21.68 31.28 18.72 29.44C19.12 28.48 19.32 27.48 19.44 26.48H31.52C32.36 26.48 32.84 26 32.84 25.16V24.12C32.84 23.28 32.36 22.8 31.52 22.8H3.08C2.24 22.8 1.76 23.28 1.76 24.12V25.16C1.76 26 2.24 26.48 3.08 26.48H15.36C14.76 29.56 12.08 32.32 2.92 33.76C2.08 33.92 1.64 34.4 1.64 35.2V36.4C1.64 37.28 2.16 37.76 3.12 37.6C10.12 36.44 14.2 34.64 16.52 32.52C20.08 34.92 24.48 36.52 31.48 37.64C32.4 37.76 32.92 37.28 32.92 36.4V35.16C32.92 34.36 32.52 33.88 31.68 33.76ZM47.32 12.84H48.56C49.36 12.84 49.84 12.36 49.92 11.56L50.68 2.16C50.76 1.28 50.32 0.8 49.44 0.8H39.12C38.28 0.8 37.8 1.28 37.8 2.12V2.96C37.8 3.8 38.28 4.28 39.12 4.28H46.8L46.08 11.44C46 12.36 46.44 12.84 47.32 12.84ZM67.16 12.84H68.48C69.32 12.84 69.8 12.4 69.84 11.56L70.4 2.16C70.44 1.32 70 0.8 69.12 0.8H54.36C53.52 0.8 53.04 1.28 53.04 2.12V2.96C53.04 3.8 53.52 4.28 54.36 4.28H66.44L65.92 11.48C65.84 12.36 66.28 12.84 67.16 12.84ZM58.84 15.32V10.12C58.84 9.28 58.36 8.8 57.52 8.8H56.24C55.4 8.8 54.92 9.28 54.92 10.12V15.32H37.8C36.96 15.32 36.48 15.8 36.48 16.64V17.4C36.48 18.24 36.96 18.72 37.8 18.72H71.68C72.52 18.72 73 18.24 73 17.4V16.64C73 15.8 72.52 15.32 71.68 15.32H58.84ZM56.08 28.16H69.36C70.2 28.16 70.68 27.68 70.68 26.84V26.2C70.68 25.36 70.2 24.88 69.36 24.88H56.64C56.68 24.16 56.72 23.36 56.76 22.52C56.76 21.68 56.28 21.2 55.44 21.2H54.04C53.2 21.2 52.72 21.64 52.72 22.52C52.68 23.36 52.64 24.16 52.52 24.88H40.12C39.28 24.88 38.8 25.36 38.8 26.2V26.84C38.8 27.68 39.28 28.16 40.12 28.16H51.64C50.2 31.12 46.96 32.72 39.88 34.04C39.04 34.2 38.64 34.68 38.64 35.48V36.4C38.64 37.28 39.2 37.76 40.12 37.6C47.24 36.36 51.32 34.8 53.68 32.48C57.4 34.92 62.08 36.52 69.4 37.64C70.32 37.76 70.84 37.28 70.84 36.4V35.52C70.84 34.72 70.44 34.24 69.6 34.08C63.04 33.04 58.8 31.56 55.64 29.56C55.8 29.12 55.96 28.64 56.08 28.16ZM107.44 18H108.8C109.64 18 110.12 17.52 110.12 16.68V1.32C110.12 0.48 109.64 0 108.8 0H107.44C106.6 0 106.12 0.48 106.12 1.32V16.68C106.12 17.52 106.6 18 107.44 18ZM77.52 16.44H101.6C102.44 16.44 102.92 15.96 102.92 15.12V14.28C102.92 13.44 102.44 12.96 101.6 12.96H97.08V4.28H101.6C102.44 4.28 102.92 3.8 102.92 2.96V2.12C102.92 1.28 102.44 0.8 101.6 0.8H77.52C76.68 0.8 76.2 1.28 76.2 2.12V2.96C76.2 3.8 76.68 4.28 77.52 4.28H82.04V12.96H77.52C76.68 12.96 76.2 13.44 76.2 14.28V15.12C76.2 15.96 76.68 16.44 77.52 16.44ZM86.04 12.96V4.28H93.12V12.96H86.04ZM80.76 37.44H109.12C109.96 37.44 110.44 36.96 110.44 36.12V35.48C110.44 34.64 109.96 34.16 109.12 34.16H83.6V30.28H108.8C109.64 30.28 110.12 29.8 110.12 28.96V21.36C110.12 20.52 109.64 20.04 108.8 20.04H80.76C79.92 20.04 79.44 20.52 79.44 21.36V22C79.44 22.84 79.92 23.32 80.76 23.32H105.96V27H80.76C79.92 27 79.44 27.48 79.44 28.32V36.12C79.44 36.96 79.92 37.44 80.76 37.44ZM117.4 16.52H145.68C146.52 16.52 147 16.04 147 15.2V14.68C147 13.84 146.52 13.36 145.68 13.36H120.24V10.16H145.68C146.52 10.16 147 9.68 147 8.84V2.04C147 1.2 146.52 0.72 145.68 0.72H117.4C116.56 0.72 116.08 1.2 116.08 2.04V2.56C116.08 3.4 116.56 3.88 117.4 3.88H142.88V7H117.4C116.56 7 116.08 7.48 116.08 8.32V15.2C116.08 16.04 116.56 16.52 117.4 16.52ZM114.6 22.96H148.48C149.32 22.96 149.8 22.48 149.8 21.64V21.12C149.8 20.28 149.32 19.8 148.48 19.8H114.6C113.76 19.8 113.28 20.28 113.28 21.12V21.64C113.28 22.48 113.76 22.96 114.6 22.96ZM117.4 37.44H145.68C146.52 37.44 147 36.96 147 36.12V27.52C147 26.68 146.52 26.2 145.68 26.2H117.4C116.56 26.2 116.08 26.68 116.08 27.52V36.12C116.08 36.96 116.56 37.44 117.4 37.44ZM120.24 34.2V29.44H142.88V34.2H120.24Z" fill="#212121"/>
</svg>
