<svg width="205" height="141" viewBox="0 0 205 141" fill="none" xmlns="http://www.w3.org/2000/svg">
<path d="M174.225 5.16719C181.953 14.4335 175.055 26.3992 170.641 31.2238C155.634 19.463 162.166 7.60887 167.308 3.15188L170.018 6.26939L174.225 5.16719Z" fill="#FF859B" stroke="#8B304B" stroke-width="1.5" stroke-linejoin="round"/>
<path d="M200.454 32.9319C193.18 42.5169 180.002 38.3523 174.322 35.0718C182.388 17.8112 195.376 21.6422 200.862 25.7152L198.439 29.0476L200.454 32.9319Z" fill="#FF859B" stroke="#8B304B" stroke-width="1.5" stroke-linejoin="round"/>
<path d="M179.227 64.1645C168.388 58.9397 169.851 45.1966 171.938 38.9782C190.457 43.4546 189.283 56.9448 186.381 63.1304L182.633 61.4181L179.227 64.1645Z" fill="#FF859B" stroke="#8B304B" stroke-width="1.5" stroke-linejoin="round"/>
<path d="M147.146 57.9573C146.79 45.93 159.662 40.8979 166.143 39.8853C170.701 58.3845 158.186 63.5567 151.359 63.8304L151.153 59.7157L147.146 57.9573Z" fill="#FF859B" stroke="#8B304B" stroke-width="1.5" stroke-linejoin="round"/>
<path d="M143.503 21.2369C154.984 17.6351 163.316 28.662 166.047 34.6257C149.475 44.0263 141.105 33.3816 138.992 26.8842L142.896 25.5705L143.503 21.2369Z" fill="#FF859B" stroke="#8B304B" stroke-width="1.5" stroke-linejoin="round"/>
<path d="M170 26C169.5 25.3333 168.8 23.4 170 21" stroke="#FFB6C3"/>
<path d="M176.88 47.4906C176.111 47.1676 174.531 45.8523 174.355 43.1748" stroke="#FFB6C3"/>
<path d="M180.098 32.6708C180.552 31.972 182.126 30.6499 184.793 30.9514" stroke="#FFB6C3"/>
<path d="M160.56 47.5774C160.494 46.7466 160.939 44.739 163.237 43.3548" stroke="#FFB6C3"/>
<path d="M161.973 32.9437C161.286 33.4156 159.325 34.0346 156.977 32.7359" stroke="#FFB6C3"/>
<path d="M30.1357 16.3487C25.2827 42.0167 51.172 57.1837 64.7233 61.5587C80.7875 23.4428 55.7127 8.09685 41.1673 5.18837L39.3255 13.941L30.1357 16.3487Z" fill="#FFB6C3" stroke="#8B304B" stroke-width="1.5" stroke-linejoin="round"/>
<path d="M10.1489 95.9111C34.1155 106.303 54.6168 84.3946 61.8716 72.1412C28.2349 48.0695 7.73861 69.1442 1.69509 82.6906L9.82629 86.4166L10.1489 95.9111Z" fill="#FFB6C3" stroke="#8B304B" stroke-width="1.5" stroke-linejoin="round"/>
<path d="M83.5609 132.409C98.5073 110.984 81.1082 86.5392 70.5404 76.9947C40.2659 105.179 56.8487 129.453 68.9244 138.067L74.1915 130.839L83.5609 132.409Z" fill="#FFB6C3" stroke="#8B304B" stroke-width="1.5" stroke-linejoin="round"/>
<path d="M137.654 86.5127C125.523 63.377 95.8112 67.5588 82.4714 72.5417C93.5402 112.396 122.725 108.86 135.933 102.11L131.944 94.1053L137.654 86.5127Z" fill="#FFB6C3" stroke="#8B304B" stroke-width="1.5" stroke-linejoin="round"/>
<path d="M105.455 13.157C79.8981 18.5638 75.8718 48.2973 77.0532 62.4883C118.416 62.6338 122.921 33.5831 120.003 19.0395L111.217 20.7106L105.455 13.157Z" fill="#FFB6C3" stroke="#8B304B" stroke-width="1.5" stroke-linejoin="round"/>
<path d="M55.5 44.5C57.5 45.6667 61.5 49 61.5 53" stroke="#FF859B"/>
<path d="M45 76.7382C46.7001 75.1663 51.0566 72.3147 54.8821 73.4834" stroke="#FF859B"/>
<path d="M71.1428 95.3762C70.0295 93.346 68.3179 88.4285 70.3783 85" stroke="#FF859B"/>
<path d="M82.7068 57.1329C83.863 55.1269 87.1754 51.1096 91.1754 51.0887" stroke="#FF859B"/>
<path d="M90.2061 75.0686C92.5214 75.0548 97.6612 75.888 99.6972 79.3311" stroke="#FF859B"/>
</svg>
